<?xml version="1.0" encoding="UTF-8"?>
<svg version="1.1" xmlns="http://www.w3.org/2000/svg" width="183" height="180">
<path d="M0 0 C60.39 0 120.78 0 183 0 C183 59.4 183 118.8 183 180 C122.61 180 62.22 180 0 180 C0 120.6 0 61.2 0 0 Z " fill="#0A9ED7" transform="translate(0,0)"/>
<path d="M0 0 C3 0.25 3 0.25 5 2.25 C6.37362122 6.82494437 6.12716849 11.53919414 6.09765625 16.26953125 C6.0962413 17.12810226 6.09482635 17.98667328 6.09336853 18.8712616 C6.08779057 21.60171049 6.07524214 24.33207607 6.0625 27.0625 C6.05748215 28.9186186 6.05291974 30.7747385 6.04882812 32.63085938 C6.03782836 37.1706048 6.02057893 41.7102883 6 46.25 C4.515 46.745 4.515 46.745 3 47.25 C2.67 48.24 2.34 49.23 2 50.25 C6.29 50.25 10.58 50.25 15 50.25 C15 49.26 15 48.27 15 47.25 C13.02 46.755 13.02 46.755 11 46.25 C10.35842097 13.2443233 10.35842097 13.2443233 20.48828125 2.4765625 C22 1.25 22 1.25 24.625 0.5 C28.23333867 1.63947537 29.07669501 2.9563402 31 6.25 C31.5623489 10.2976676 31.46867542 14.29602074 31.375 18.375 C31.36210938 19.52468262 31.34921875 20.67436523 31.3359375 21.85888672 C31.16042689 31.73272995 30.31990254 41.46857939 29 51.25 C29.99 51.25 30.98 51.25 32 51.25 C32.495 50.26 32.495 50.26 33 49.25 C34.65 49.91 36.3 50.57 38 51.25 C38 52.57 38 53.89 38 55.25 C39.3921875 55.4046875 39.3921875 55.4046875 40.8125 55.5625 C48.29087134 56.66984505 55.40929993 58.10262193 61.3671875 62.96875 C63.0408122 64.36156064 63.0408122 64.36156064 65.34375 65.48046875 C68.86853784 67.82859948 71.07585039 70.71849192 73.625 74.0625 C74.34042969 74.96838867 74.34042969 74.96838867 75.0703125 75.89257812 C84.31210628 87.81705927 85.05848115 100.49487105 85.125 115.0625 C85.12967285 115.76745605 85.1343457 116.47241211 85.13916016 117.19873047 C85.10616684 127.96216469 82.67270208 137.02102387 75.375 145.1875 C57.67604158 156.00353014 36.19279654 156.47682932 16 156.5 C15.30100586 156.50133942 14.60201172 156.50267883 13.88183594 156.50405884 C2.21049087 156.49930078 -9.3706338 155.90373997 -21 154.9375 C-21.73105957 154.87864624 -22.46211914 154.81979248 -23.21533203 154.75915527 C-31.28836925 154.09460092 -39.27843297 153.14780903 -47.265625 151.7890625 C-47.97106445 151.67201462 -48.67650391 151.55496674 -49.40332031 151.43437195 C-56.68685318 150.12511493 -62.28011976 147.19340801 -66.84375 141.2421875 C-69.57091439 136.54335697 -71.26346675 131.37720948 -73 126.25 C-73.25007813 125.54746094 -73.50015625 124.84492187 -73.7578125 124.12109375 C-77.64257311 111.45458557 -74.30684548 100.72879717 -69 89.25 C-68.54496094 88.095 -68.08992188 86.94 -67.62109375 85.75 C-65.7844202 81.78455541 -63.58052168 78.595322 -60.875 75.1875 C-60.38781494 74.57261719 -59.90062988 73.95773438 -59.39868164 73.32421875 C-55.4677269 68.52164262 -51.44053275 65.25233266 -46 62.25 C-45.25621094 61.74210937 -44.51242188 61.23421875 -43.74609375 60.7109375 C-34.8252585 54.74411854 -23.77111306 51.37072546 -13 52.25 C-13.16081055 51.69763672 -13.32162109 51.14527344 -13.48730469 50.57617188 C-16.85464909 35.29804929 -14.76178276 17.35631488 -6.40234375 4.2109375 C-3.60582524 0.30048544 -3.60582524 0.30048544 0 0 Z " fill="#F3EAC5" transform="translate(86,1.75)"/>
<path d="M0 0 C26.4 0 52.8 0 80 0 C77 5 77 5 75.68359375 7.10546875 C75.06677734 8.13607422 75.06677734 8.13607422 74.4375 9.1875 C73.81681641 10.19876953 73.81681641 10.19876953 73.18359375 11.23046875 C69.61196861 19.58783582 69.61450163 28.67362669 69.375 37.625 C69.33632812 38.81996094 69.29765625 40.01492187 69.2578125 41.24609375 C69.16444214 44.16391736 69.07866422 47.08174921 69 50 C65.33202249 51.96197627 62.05638142 52.58552689 57.9375 53.25 C51.59201374 54.36997406 46.61058452 56.39170368 41.07421875 59.79296875 C39 61 39 61 37 61 C37 61.66 37 62.32 37 63 C35.60282082 63.95417114 34.20086662 64.90200215 32.77734375 65.81640625 C26.18630617 70.2056027 22.16149315 75.3270518 18 82 C17.29875 82.94875 16.5975 83.8975 15.875 84.875 C10.16303475 94.39494208 8.81967956 104.00514375 8.8125 114.875 C8.80025391 115.84308594 8.78800781 116.81117187 8.77539062 117.80859375 C8.75424281 128.17102529 11.64085881 138.64314635 18.46875 146.7421875 C19.63794759 147.83661083 20.81805073 148.91936067 22 150 C22.9375 151.9375 22.9375 151.9375 23 154 C22.690625 154.845625 22.38125 155.69125 22.0625 156.5625 C20.44308085 161.80179724 19.73042356 167.78540743 21.79296875 173.0078125 C23.59164893 175.86089141 24.771845 176.92394833 28 178 C28 178.66 28 179.32 28 180 C18.76 180 9.52 180 0 180 C0 120.6 0 61.2 0 0 Z " fill="#0A9FD8" transform="translate(0,0)"/>
<path d="M0 0 C1.13913597 0.0074398 1.13913597 0.0074398 2.30128479 0.01502991 C3.08661087 0.00883133 3.87193695 0.00263275 4.68106079 -0.00375366 C6.34115866 -0.01085387 8.0013277 -0.00767419 9.66139221 0.00502014 C12.19959424 0.01887151 14.73409838 -0.01515646 17.27198792 -0.05332947 C18.88592111 -0.05428084 20.49985891 -0.05242088 22.11378479 -0.04747009 C22.87118454 -0.0607283 23.62858429 -0.07398651 24.40893555 -0.08764648 C28.24079413 -0.02007799 29.91413141 0.23569589 32.72145081 2.9332428 C34.81788279 6.50927642 35.40112434 9.14272592 35.40675354 13.21424866 C35.4080426 14.10241272 35.40933167 14.99057678 35.41065979 15.90565491 C35.4067926 16.82991272 35.40292542 17.75417053 35.39894104 18.70643616 C35.40280823 19.63842834 35.40667542 20.57042053 35.41065979 21.53065491 C35.40937073 22.41624084 35.40808167 23.30182678 35.40675354 24.21424866 C35.40562561 25.02780823 35.40449768 25.8413678 35.40333557 26.67958069 C35.27394104 28.58143616 35.27394104 28.58143616 34.27394104 29.58143616 C34.12959305 30.93637273 34.0470362 32.2980414 33.99269104 33.65956116 C33.95530823 34.49100647 33.91792542 35.32245178 33.87940979 36.17909241 C33.8446051 37.05436584 33.80980042 37.92963928 33.77394104 38.83143616 C33.35304873 49.22903515 33.35304873 49.22903515 32.27394104 53.58143616 C31.28394104 53.58143616 30.29394104 53.58143616 29.27394104 53.58143616 C29.34612854 52.51151428 29.41831604 51.44159241 29.49269104 50.33924866 C30.11331714 40.44554422 30.42983775 30.55661113 30.52394104 20.64393616 C30.54521057 19.51294495 30.5664801 18.38195374 30.58839417 17.21669006 C30.59290588 16.15240784 30.5974176 15.08812561 30.60206604 13.99159241 C30.61141174 13.04421204 30.62075745 12.09683167 30.63038635 11.1207428 C30.20832442 8.11398519 29.37095957 6.7501503 27.27394104 4.58143616 C24.77932626 3.95643331 24.77932626 3.95643331 22.27394104 4.58143616 C15.73014365 10.25071684 13.3201809 18.33586874 12.71827698 26.65223694 C12.2887318 33.95609578 12.13173514 41.2657324 12.27394104 48.58143616 C13.75894104 49.07643616 13.75894104 49.07643616 15.27394104 49.58143616 C15.27394104 50.57143616 15.27394104 51.56143616 15.27394104 52.58143616 C13.85850689 52.77802423 12.44150073 52.96331162 11.02394104 53.14393616 C9.84058167 53.30055725 9.84058167 53.30055725 8.63331604 53.46034241 C6.2686123 53.58170965 4.52283734 53.27776873 2.27394104 52.58143616 C2.60394104 51.26143616 2.93394104 49.94143616 3.27394104 48.58143616 C4.26394104 48.58143616 5.25394104 48.58143616 6.27394104 48.58143616 C6.18010755 43.13680492 6.07394764 37.69260274 5.95655823 32.24842834 C5.91836982 30.39790865 5.88349953 28.54731729 5.85206604 26.69667053 C5.80619463 24.03039508 5.74823745 21.36460867 5.68800354 18.69862366 C5.67645233 17.87651398 5.66490112 17.0544043 5.65299988 16.2073822 C5.53646816 11.63075088 5.00149678 7.89123312 3.27394104 3.58143616 C0.53268454 2.82589296 0.53268454 2.82589296 -2.72605896 3.58143616 C-10.25049482 11.37653518 -12.87167203 22.69217378 -12.82371521 33.19471741 C-12.82049255 34.44188538 -12.8172699 35.68905334 -12.81394958 36.97401428 C-12.80557068 38.2675885 -12.79719177 39.56116272 -12.78855896 40.89393616 C-12.78404724 42.20684631 -12.77953552 43.51975647 -12.77488708 44.87245178 C-12.76311845 48.10882626 -12.74667656 51.34510793 -12.72605896 54.58143616 C-13.52705017 54.7113092 -14.32804138 54.84118225 -15.15330505 54.97499084 C-16.7477948 55.2365094 -16.7477948 55.2365094 -18.37449646 55.50331116 C-19.42298767 55.6744342 -20.47147888 55.84555725 -21.55174255 56.02186584 C-30.82763708 57.65702584 -37.85574021 60.42457698 -45.72605896 65.58143616 C-46.45309021 65.96428772 -47.18012146 66.34713928 -47.92918396 66.74159241 C-59.34650104 73.12789747 -67.26163058 86.32424802 -70.72605896 98.58143616 C-71.3031546 99.8551142 -71.88619188 101.1261223 -72.47605896 102.39393616 C-76.66183531 113.8815668 -73.00090957 126.65024376 -68.72605896 137.58143616 C-66.08946315 143.21969489 -62.80071641 147.92796725 -56.83811951 150.34754944 C-51.1923051 152.28365782 -45.7029761 153.3999329 -39.78855896 154.14393616 C-38.36410461 154.32726501 -38.36410461 154.32726501 -36.91087341 154.51429749 C21.13853888 162.71374106 21.13853888 162.71374106 75.27394104 146.58143616 C82.12509667 139.9154469 84.0984288 130.84164125 84.40675354 121.60096741 C84.411385 120.19862889 84.40855251 118.79624939 84.39894104 117.39393616 C84.39410706 116.64998596 84.38927307 115.90603577 84.3842926 115.13954163 C84.20709758 98.69938742 81.69073275 87.67563618 71.27394104 74.58143616 C70.81761292 73.96010803 70.36128479 73.33877991 69.89112854 72.69862366 C66.84896571 68.68941569 63.66557114 66.85567317 59.27394104 64.58143616 C58.54819885 64.09417053 57.82245667 63.60690491 57.07472229 63.10487366 C53.48131224 61.15029915 49.92729915 60.3047722 45.96144104 59.39393616 C44.85059143 59.12806702 44.85059143 59.12806702 43.71730042 58.85682678 C41.90463762 58.42412663 40.08952077 58.001729 38.27394104 57.58143616 C38.27394104 56.92143616 38.27394104 56.26143616 38.27394104 55.58143616 C49.67361004 53.85504398 60.57968824 59.88545415 69.83644104 66.01893616 C76.61127753 71.1171717 81.36527626 76.54798104 84.27394104 84.58143616 C84.9593075 86.24898131 85.64695235 87.91559122 86.33644104 89.58143616 C92.10471933 103.66622812 93.21273628 121.38136486 87.52394104 135.70643616 C85.91761703 139.41396178 84.11558446 142.85486009 82.02394104 146.30018616 C79.86832628 149.48483431 79.86832628 149.48483431 81.02394104 152.95643616 C81.64269104 154.75081116 81.64269104 154.75081116 82.27394104 156.58143616 C82.60655375 160.81340218 82.62112481 164.53988484 81.27394104 168.58143616 C77.6575148 170.25055596 74.06820092 169.23813498 70.27394104 168.58143616 C70.87577853 170.60189058 71.547002 172.60254655 72.27394104 174.58143616 C72.93394104 174.91143616 73.59394104 175.24143616 74.27394104 175.58143616 C74.27394104 177.23143616 74.27394104 178.88143616 74.27394104 180.58143616 C30.71394104 180.58143616 -12.84605896 180.58143616 -57.72605896 180.58143616 C-57.72605896 179.92143616 -57.72605896 179.26143616 -57.72605896 178.58143616 C-58.30355896 178.54018616 -58.88105896 178.49893616 -59.47605896 178.45643616 C-62.16730762 177.40983946 -63.47186186 176.03419281 -64.96824646 173.57752991 C-67.14960736 167.83178032 -66.07196019 161.44853058 -64.41355896 155.70643616 C-63.80696923 153.56701436 -63.80696923 153.56701436 -63.72605896 151.58143616 C-65.76555022 148.87343019 -65.76555022 148.87343019 -68.72605896 146.58143616 C-75.84506905 136.9037094 -77.91266096 127.72558751 -77.97605896 115.89393616 C-77.99668396 114.95098694 -78.01730896 114.00803772 -78.03855896 113.03651428 C-78.11771491 98.64002668 -72.15666884 86.90881958 -63.72605896 75.58143616 C-63.10730896 74.69456116 -62.48855896 73.80768616 -61.85105896 72.89393616 C-58.55999854 69.31248805 -54.76625215 66.28789762 -50.72605896 63.58143616 C-50.06605896 63.58143616 -49.40605896 63.58143616 -48.72605896 63.58143616 C-48.72605896 62.92143616 -48.72605896 62.26143616 -48.72605896 61.58143616 C-38.75953638 55.31273998 -29.24318396 52.66253282 -17.72605896 50.58143616 C-17.71147644 49.85666077 -17.69689392 49.13188538 -17.68186951 48.38514709 C-17.60642124 45.03343118 -17.5100873 41.6826087 -17.41355896 38.33143616 C-17.39100037 37.19190491 -17.36844177 36.05237366 -17.34519958 34.87831116 C-16.99705626 23.73772478 -15.50131167 13.6701898 -8.72605896 4.58143616 C-8.37019714 3.89766907 -8.01433533 3.21390198 -7.64768982 2.50941467 C-5.21116848 0.06484486 -3.36546854 0.07531932 0 0 Z " fill="#0D1215" transform="translate(85.72605895996094,-0.5814361572265625)"/>
<path d="M0 0 C11.399669 -1.72639218 22.3057472 4.30401799 31.5625 10.4375 C38.33733649 15.53573554 43.09133522 20.96654488 46 29 C46.68536646 30.66754516 47.37301131 32.33415506 48.0625 34 C53.83077829 48.08479196 54.93879524 65.7999287 49.25 80.125 C47.64367599 83.83252562 45.84164342 87.27342393 43.75 90.71875 C41.59438524 93.90339816 41.59438524 93.90339816 42.75 97.375 C43.1625 98.57125 43.575 99.7675 44 101 C44.33261271 105.23196603 44.34718377 108.95844868 43 113 C39.38357376 114.6691198 35.79425988 113.65669883 32 113 C32.60183749 115.02045442 33.27306096 117.02111039 34 119 C34.99 119.495 34.99 119.495 36 120 C36 121.65 36 123.3 36 125 C16.86 125 -2.28 125 -22 125 C-18.55689827 122.4176737 -16.87331057 121.43447315 -12.9375 120.3125 C-12.08027344 120.06113281 -11.22304687 119.80976563 -10.33984375 119.55078125 C-8 119 -8 119 -5 119 C-5 118.34 -5 117.68 -5 117 C-6.32 116.67 -7.64 116.34 -9 116 C-9 115.01 -9 114.02 -9 113 C-6.03 113 -3.06 113 0 113 C-0.495 112.05125 -0.99 111.1025 -1.5 110.125 C-3 107 -3 107 -3 105 C-5.97 105 -8.94 105 -12 105 C-12 104.34 -12 103.68 -12 103 C-11.15405273 102.89977539 -10.30810547 102.79955078 -9.43652344 102.69628906 C-6.23696599 102.31108436 -3.03905844 101.9145278 0.15820312 101.51074219 C1.53070679 101.3396598 2.90375086 101.17284732 4.27734375 101.01074219 C23.81012517 98.8272754 23.81012517 98.8272754 39.52734375 88.078125 C44.96515353 79.69286471 46.19309425 71.74745064 46.125 61.8125 C46.11774902 60.69657471 46.11774902 60.69657471 46.11035156 59.55810547 C45.93315654 43.11795126 43.41679171 32.09420002 33 19 C32.54367188 18.37867187 32.08734375 17.75734375 31.6171875 17.1171875 C28.57502467 13.10797954 25.3916301 11.27423702 21 9 C20.27425781 8.51273438 19.54851562 8.02546875 18.80078125 7.5234375 C15.2073712 5.56886299 11.65335811 4.72333605 7.6875 3.8125 C6.94693359 3.63525391 6.20636719 3.45800781 5.44335938 3.27539062 C3.63069658 2.84269047 1.81557973 2.42029284 0 2 C0 1.34 0 0.68 0 0 Z " fill="#3F3509" transform="translate(124,55)"/>
<path d="M0 0 C1.67835937 0.09087891 1.67835937 0.09087891 3.390625 0.18359375 C18.25426109 0.96713502 33.12447694 1.49866844 48 2 C48 2.66 48 3.32 48 4 C50.97 4 53.94 4 57 4 C60 9.75 60 9.75 60 12 C57.03 12 54.06 12 51 12 C51 12.99 51 13.98 51 15 C52.32 15.33 53.64 15.66 55 16 C55 16.66 55 17.32 55 18 C53.94039062 18.34933594 52.88078125 18.69867188 51.7890625 19.05859375 C50.40101541 19.51814988 49.01299601 19.97778964 47.625 20.4375 C46.92632812 20.66759766 46.22765625 20.89769531 45.5078125 21.13476562 C41.68189163 22.38735399 41.68189163 22.38735399 38 24 C29.08903354 24.53568816 21.32917566 24.43056957 13 21 C11.1513808 20.41952834 9.29699637 19.85712237 7.4375 19.3125 C6.59058594 19.06113281 5.74367188 18.80976563 4.87109375 18.55078125 C4.25363281 18.36902344 3.63617188 18.18726563 3 18 C4.32 16.02 5.64 14.04 7 12 C2.545 12.495 2.545 12.495 -2 13 C-0.54955729 8.89041233 1.51110752 5.56741255 4 2 C2.68 1.34 1.36 0.68 0 0 Z " fill="#210403" transform="translate(64,156)"/>
<path d="M0 0 C0.66 0.33 1.32 0.66 2 1 C1.74605469 1.53367187 1.49210938 2.06734375 1.23046875 2.6171875 C0.88628906 3.36226563 0.54210938 4.10734375 0.1875 4.875 C-0.14894531 5.59429687 -0.48539063 6.31359375 -0.83203125 7.0546875 C-4.0753924 15.23359822 -5.46449512 22.3778626 -5.3125 31.1875 C-5.31572266 32.13302734 -5.31894531 33.07855469 -5.32226562 34.05273438 C-5.24381348 44.2871732 -2.26170942 54.75871702 4.46875 62.7421875 C5.63794759 63.83661083 6.81805073 64.91936067 8 66 C8.9375 67.9375 8.9375 67.9375 9 70 C8.690625 70.845625 8.38125 71.69125 8.0625 72.5625 C6.44308085 77.80179724 5.73042356 83.78540743 7.79296875 89.0078125 C9.59164893 91.86089141 10.771845 92.92394833 14 94 C14 94.66 14 95.32 14 96 C4.76 96 -4.48 96 -14 96 C-14 81.15 -14 66.3 -14 51 C-13.01 50.505 -13.01 50.505 -12 50 C-12 50.66 -12 51.32 -12 52 C-11.34 52 -10.68 52 -10 52 C-8.47551369 54.9826906 -7.06059933 57.818202 -6 61 C-4.68 61 -3.36 61 -2 61 C-2.33 57.7 -2.66 54.4 -3 51 C-4.32 50.67 -5.64 50.34 -7 50 C-7.99 46.535 -7.99 46.535 -9 43 C-9.99 43.495 -9.99 43.495 -11 44 C-10.88505443 40.99931553 -10.75832795 37.99987891 -10.625 35 C-10.5940625 34.16082031 -10.563125 33.32164063 -10.53125 32.45703125 C-10.27950298 27.04447022 -9.48441108 22.21354136 -8 17 C-7.34 17 -6.68 17 -6 17 C-5.87625 16.29359375 -5.7525 15.5871875 -5.625 14.859375 C-4.97171951 11.87061674 -4.0550417 9.12033404 -3 6.25 C-2.649375 5.28578125 -2.29875 4.3215625 -1.9375 3.328125 C-1 1 -1 1 0 0 Z " fill="#0B9AD1" transform="translate(14,84)"/>
<path d="M0 0 C11.399669 -1.72639218 22.3057472 4.30401799 31.5625 10.4375 C38.33733649 15.53573554 43.09133522 20.96654488 46 29 C46.68536646 30.66754516 47.37301131 32.33415506 48.0625 34 C53.83077829 48.08479196 54.93879524 65.7999287 49.25 80.125 C47.64367599 83.83252562 45.84164342 87.27342393 43.75 90.71875 C41.59438524 93.90339816 41.59438524 93.90339816 42.75 97.375 C43.1625 98.57125 43.575 99.7675 44 101 C44.33261271 105.23196603 44.34718377 108.95844868 43 113 C39.38357376 114.6691198 35.79425988 113.65669883 32 113 C32.60183749 115.02045442 33.27306096 117.02111039 34 119 C34.99 119.495 34.99 119.495 36 120 C36 121.65 36 123.3 36 125 C34 125 34 125 32.4921875 123.85546875 C28.8300259 120.07831174 27.58353452 117.51624527 27.5625 112.1875 C27.7784522 107.4430956 27.7784522 107.4430956 29 105 C29.66 105 30.32 105 31 105 C31 106.98 31 108.96 31 111 C34.3 111 37.6 111 41 111 C40.505 103.575 40.505 103.575 40 96 C36.49816827 96.87545793 33.6535556 97.97988359 30.375 99.4375 C20.10710206 103.72819165 11.09106882 104.28766461 0 104 C0.495 103.01 0.495 103.01 1 102 C2.85083008 101.48510742 2.85083008 101.48510742 5.26953125 101.10546875 C6.59488892 100.88322632 6.59488892 100.88322632 7.94702148 100.65649414 C9.36543335 100.42434204 9.36543335 100.42434204 10.8125 100.1875 C21.28373272 98.3285184 32.60850435 96.29289756 40 88 C44.87070342 79.42969125 46.1921435 71.60873696 46.125 61.8125 C46.12016602 61.0685498 46.11533203 60.32459961 46.11035156 59.55810547 C45.93315654 43.11795126 43.41679171 32.09420002 33 19 C32.54367188 18.37867187 32.08734375 17.75734375 31.6171875 17.1171875 C28.57502467 13.10797954 25.3916301 11.27423702 21 9 C20.27425781 8.51273438 19.54851562 8.02546875 18.80078125 7.5234375 C15.2073712 5.56886299 11.65335811 4.72333605 7.6875 3.8125 C6.94693359 3.63525391 6.20636719 3.45800781 5.44335938 3.27539062 C3.63069658 2.84269047 1.81557973 2.42029284 0 2 C0 1.34 0 0.68 0 0 Z " fill="#0F0B04" transform="translate(124,55)"/>
<path d="M0 0 C4.03710239 0.53828032 8.0062824 1.20006254 12 2 C17.9138386 3.10884474 23.81593652 3.45284927 29.8125 3.75390625 C33 4 33 4 36 5 C34.31326082 9.49797113 32.18326108 13.72886302 30 18 C33.96 17.505 33.96 17.505 38 17 C37.01 18.65 36.02 20.3 35 22 C35.58007812 22.04898438 36.16015625 22.09796875 36.7578125 22.1484375 C41.43923092 22.59649405 45.57485459 23.298021 50 25 C50 25.33 50 25.66 50 26 C34.16 26 18.32 26 2 26 C3 22 3 22 4.48828125 20.140625 C6.4379637 17.37983435 6.71712508 15.0788071 7.1875 11.75 C7.34605469 10.67234375 7.50460938 9.5946875 7.66796875 8.484375 C7.77753906 7.66453125 7.88710938 6.8446875 8 6 C7.01 6 6.02 6 5 6 C5 7.98 5 9.96 5 12 C2.03 12 -0.94 12 -4 12 C-3.5317879 7.22423661 -2.75668002 3.95523655 0 0 Z " fill="#3E350B" transform="translate(28,154)"/>
<path d="M0 0 C0.78532608 -0.00619858 1.57065216 -0.01239716 2.379776 -0.01878357 C4.03987387 -0.02588377 5.70004291 -0.02270409 7.36010742 -0.01000977 C9.89830945 0.0038416 12.43281359 -0.03018636 14.97070312 -0.06835938 C16.58463632 -0.06931074 18.19857412 -0.06745079 19.8125 -0.0625 C20.56989975 -0.07575821 21.3272995 -0.08901642 22.10765076 -0.10267639 C25.93950934 -0.03510789 27.61284662 0.22066599 30.42016602 2.91821289 C32.516598 6.49424651 33.09983955 9.12769601 33.10546875 13.19921875 C33.10740234 14.53146484 33.10740234 14.53146484 33.109375 15.890625 C33.10550781 16.81488281 33.10164063 17.73914063 33.09765625 18.69140625 C33.10345703 20.08939453 33.10345703 20.08939453 33.109375 21.515625 C33.10808594 22.40121094 33.10679688 23.28679688 33.10546875 24.19921875 C33.10434082 25.01277832 33.10321289 25.82633789 33.10205078 26.66455078 C32.97265625 28.56640625 32.97265625 28.56640625 31.97265625 29.56640625 C31.82830826 30.92134282 31.74575141 32.28301149 31.69140625 33.64453125 C31.65402344 34.47597656 31.61664063 35.30742188 31.578125 36.1640625 C31.54332031 37.03933594 31.50851563 37.91460937 31.47265625 38.81640625 C31.05176394 49.21400525 31.05176394 49.21400525 29.97265625 53.56640625 C28.98265625 53.56640625 27.99265625 53.56640625 26.97265625 53.56640625 C27.04484375 52.49648438 27.11703125 51.4265625 27.19140625 50.32421875 C27.81203235 40.43051432 28.12855296 30.54158123 28.22265625 20.62890625 C28.24392578 19.49791504 28.26519531 18.36692383 28.28710938 17.20166016 C28.29162109 16.13737793 28.29613281 15.0730957 28.30078125 13.9765625 C28.31012695 13.02918213 28.31947266 12.08180176 28.32910156 11.10571289 C27.90703963 8.09895528 27.06967478 6.73512039 24.97265625 4.56640625 C22.47804147 3.9414034 22.47804147 3.9414034 19.97265625 4.56640625 C13.42885886 10.23568694 11.01889611 18.32083883 10.41699219 26.63720703 C9.98744701 33.94106588 9.83045035 41.2507025 9.97265625 48.56640625 C11.45765625 49.06140625 11.45765625 49.06140625 12.97265625 49.56640625 C12.97265625 50.55640625 12.97265625 51.54640625 12.97265625 52.56640625 C11.5572221 52.76299433 10.14021594 52.94828171 8.72265625 53.12890625 C7.53929687 53.28552734 7.53929687 53.28552734 6.33203125 53.4453125 C3.96732751 53.56667974 2.22155255 53.26273882 -0.02734375 52.56640625 C0.30265625 51.24640625 0.63265625 49.92640625 0.97265625 48.56640625 C1.96265625 48.56640625 2.95265625 48.56640625 3.97265625 48.56640625 C3.87882276 43.12177502 3.77266285 37.67757283 3.65527344 32.23339844 C3.61708503 30.38287874 3.58221474 28.53228738 3.55078125 26.68164062 C3.50490984 24.01536518 3.44695266 21.34957877 3.38671875 18.68359375 C3.37516754 17.86148407 3.36361633 17.03937439 3.35171509 16.19235229 C3.23518337 11.61572097 2.70021199 7.87620321 0.97265625 3.56640625 C-1.76860025 2.81086305 -1.76860025 2.81086305 -5.02734375 3.56640625 C-7.42654622 6.33845775 -9.24062898 9.37312879 -11.02734375 12.56640625 C-11.68734375 11.57640625 -12.34734375 10.58640625 -13.02734375 9.56640625 C-12.36734375 9.56640625 -11.70734375 9.56640625 -11.02734375 9.56640625 C-11.08921875 8.82390625 -11.15109375 8.08140625 -11.21484375 7.31640625 C-10.72793613 0.17509445 -6.15221216 -0.04018068 0 0 Z " fill="#231B19" transform="translate(88.02734375,-0.56640625)"/>
<path d="M0 0 C6.93 0.495 6.93 0.495 14 1 C14 1.66 14 2.32 14 3 C14.928125 3.185625 14.928125 3.185625 15.875 3.375 C18 4 18 4 20 6 C20.75608461 10.47496589 20.54362621 14.0335534 18.3125 18 C15.69378916 20.264831 14.45855456 21 11 21 C8.1875 19.5625 8.1875 19.5625 6 18 C6.66 17.67 7.32 17.34 8 17 C8.66 17.33 9.32 17.66 10 18 C10 17.34 10 16.68 10 16 C9.34 15.67 8.68 15.34 8 15 C8.66 15 9.32 15 10 15 C10 14.34 10 13.68 10 13 C9.01 13 8.02 13 7 13 C7 13.99 7 14.98 7 16 C2.6835078 16.76173392 -0.74433453 17.16063604 -5 16 C-5 16.66 -5 17.32 -5 18 C-8.875 17.125 -8.875 17.125 -10 16 C-10.4415011 7.02281089 -10.4415011 7.02281089 -8 4 C-5.08510357 2.50518132 -3.29223784 2 0 2 C0 1.34 0 0.68 0 0 Z M6 20 C8 21 8 21 8 21 Z " fill="#EDC8C2" transform="translate(44,106)"/>
<path d="M0 0 C2.875 -0.125 2.875 -0.125 6 0 C9.21760021 3.21760021 9.04993446 6.77985228 9.11352539 11.14770508 C9.11336822 12.77165574 9.10778777 14.39561218 9.09765625 16.01953125 C9.0962413 16.87810226 9.09482635 17.73667328 9.09336853 18.6212616 C9.08779057 21.35171049 9.07524214 24.08207607 9.0625 26.8125 C9.05748215 28.6686186 9.05291974 30.5247385 9.04882812 32.38085938 C9.03782836 36.9206048 9.02057893 41.4602883 9 46 C5.91190305 47.76462683 4.76687864 48 1 48 C1 47.34 1 46.68 1 46 C-0.485 46.495 -0.485 46.495 -2 47 C-2.15066004 42.32953887 -2.14747685 38.22084166 -1 33.6875 C0.20719766 28.3021998 0.19138503 22.9919756 0.1875 17.5 C0.18814453 16.60240967 0.18878906 15.70481934 0.18945312 14.7800293 C0.30515638 10.23647297 0.30515638 10.23647297 -1 6 C-0.34 6 0.32 6 1 6 C0.34 5.34 -0.32 4.68 -1 4 C-0.625 1.875 -0.625 1.875 0 0 Z " fill="#F4EACA" transform="translate(83,2)"/>
<path d="M0 0 C0.99 0.33 1.98 0.66 3 1 C2.814375 1.639375 2.62875 2.27875 2.4375 2.9375 C2.293125 3.618125 2.14875 4.29875 2 5 C2.33 5.33 2.66 5.66 3 6 C4.10614297 19.63623306 2.64605216 32.17689605 -2 45 C-4.475 45.495 -4.475 45.495 -7 46 C-7.33 47.32 -7.66 48.64 -8 50 C-11.6893146 37.32768492 -10.56406609 18.7100498 -4.46484375 7.0703125 C-3.04879102 4.6533147 -1.5804347 2.31183328 0 0 Z " fill="#F6C1C5" transform="translate(81,4)"/>
<path d="M0 0 C2.54011515 0.48689368 5.05106573 1.01294185 7.55859375 1.6484375 C15.77468375 3.72196903 23.98851044 4.90184602 32.39624023 5.90966797 C33.30704346 6.0232666 34.21784668 6.13686523 35.15625 6.25390625 C35.96900391 6.35002197 36.78175781 6.4461377 37.61914062 6.54516602 C40 7 40 7 45 9 C42.69 12.63 40.38 16.26 38 20 C40.97 19.67 43.94 19.34 47 19 C46.34 20.32 45.68 21.64 45 23 C45 23.66 45 24.32 45 25 C46.14339844 25.26554687 47.28679687 25.53109375 48.46484375 25.8046875 C49.95583291 26.16102453 51.44671279 26.51781904 52.9375 26.875 C53.69224609 27.04902344 54.44699219 27.22304687 55.22460938 27.40234375 C57.16593545 27.87244065 59.08549544 28.4304297 61 29 C61.495 29.99 61.495 29.99 62 31 C53.94924431 31.65720455 46.64327471 29.22928846 39 27 C39.66 25.68 40.32 24.36 41 23 C38.69 23 36.38 23 34 23 C34.48324819 17.84535266 37.18610761 14.18449681 40 10 C38.86304688 9.96261719 37.72609375 9.92523438 36.5546875 9.88671875 C27.70555649 9.5307137 19.51494845 8.76255527 10.91796875 6.5234375 C7.64801131 5.75304867 7.64801131 5.75304867 3 7 C2.01 10.3 1.02 13.6 0 17 C2.97 17 5.94 17 9 17 C9 15.02 9 13.04 9 11 C9.99 11 10.98 11 12 11 C12.35168701 16.86145018 12.15935752 20.85141738 9 26 C8.484375 26.94875 7.96875 27.8975 7.4375 28.875 C6.963125 29.57625 6.48875 30.2775 6 31 C5.34 31 4.68 31 4 31 C4 30.34 4 29.68 4 29 C2.68 28.67 1.36 28.34 0 28 C0.33 26.68 0.66 25.36 1 24 C2.65 24 4.3 24 6 24 C6.66 22.35 7.32 20.7 8 19 C5.36 19 2.72 19 0 19 C-0.33 19.99 -0.66 20.98 -1 22 C-2.63837345 20.36162655 -2.17085921 18.49983422 -2.1875 16.25 C-2.15949683 12.30715387 -1.60699379 9.61573603 0 6 C0.16757757 2.79129767 0.16757757 2.79129767 0 0 Z " fill="#0D0904" transform="translate(24,149)"/>
<path d="M0 0 C0.33 1.32 0.66 2.64 1 4 C1.66 4 2.32 4 3 4 C2.34 16.54 1.68 29.08 1 42 C-0.485 42.495 -0.485 42.495 -2 43 C-2.66 43.66 -3.32 44.32 -4 45 C-4 44.34 -4 43.68 -4 43 C-5.32 42.67 -6.64 42.34 -8 42 C-8.60377586 10.93908645 -8.60377586 10.93908645 0 0 Z " fill="#EDC3C5" transform="translate(105,6)"/>
<path d="M0 0 C11.399669 -1.72639218 22.3057472 4.30401799 31.5625 10.4375 C38.33733649 15.53573554 43.09133522 20.96654488 46 29 C46.68536646 30.66754516 47.37301131 32.33415506 48.0625 34 C48.73991233 35.65408313 49.38335134 37.32231621 50 39 C50.36738281 39.99128906 50.73476562 40.98257813 51.11328125 42.00390625 C52.64389678 47.50994299 52.20869228 53.2753953 52.125 58.9375 C52.11597656 60.09830078 52.10695312 61.25910156 52.09765625 62.45507812 C52.07421162 65.30360108 52.04139522 68.15169078 52 71 C51.67 71 51.34 71 51 71 C50.67 63.08 50.34 55.16 50 47 C49.01 46.505 49.01 46.505 48 46 C48 52.6 48 59.2 48 66 C47.67 66 47.34 66 47 66 C46.96036133 65.30028076 46.92072266 64.60056152 46.87988281 63.87963867 C46.68699201 60.6476521 46.46863575 57.41784318 46.25 54.1875 C46.1571875 52.53717773 46.1571875 52.53717773 46.0625 50.85351562 C45.36050732 40.93786902 43.25357775 32.16847349 37.0625 24.1875 C36.36382812 23.28257813 35.66515625 22.37765625 34.9453125 21.4453125 C34.30335938 20.63835937 33.66140625 19.83140625 33 19 C32.54367188 18.37867187 32.08734375 17.75734375 31.6171875 17.1171875 C28.57502467 13.10797954 25.3916301 11.27423702 21 9 C20.27425781 8.51273438 19.54851562 8.02546875 18.80078125 7.5234375 C15.2073712 5.56886299 11.65335811 4.72333605 7.6875 3.8125 C6.94693359 3.63525391 6.20636719 3.45800781 5.44335938 3.27539062 C3.63069658 2.84269047 1.81557973 2.42029284 0 2 C0 1.34 0 0.68 0 0 Z " fill="#0F1A1E" transform="translate(124,55)"/>
<path d="M0 0 C2.53515625 0.49609375 2.53515625 0.49609375 5.16015625 2.80859375 C7.01049689 6.42516864 7.66242486 9.11908732 7.66796875 13.12890625 C7.66990234 14.46115234 7.66990234 14.46115234 7.671875 15.8203125 C7.66800781 16.74457031 7.66414063 17.66882813 7.66015625 18.62109375 C7.66595703 20.01908203 7.66595703 20.01908203 7.671875 21.4453125 C7.67058594 22.33089844 7.66929688 23.21648438 7.66796875 24.12890625 C7.66684082 24.94246582 7.66571289 25.75602539 7.66455078 26.59423828 C7.53515625 28.49609375 7.53515625 28.49609375 6.53515625 29.49609375 C6.39080826 30.85103032 6.30825141 32.21269899 6.25390625 33.57421875 C6.21652344 34.40566406 6.17914063 35.23710938 6.140625 36.09375 C6.10582031 36.96902344 6.07101563 37.84429687 6.03515625 38.74609375 C5.61426394 49.14369275 5.61426394 49.14369275 4.53515625 53.49609375 C3.54515625 53.49609375 2.55515625 53.49609375 1.53515625 53.49609375 C1.60734375 52.42617188 1.67953125 51.35625 1.75390625 50.25390625 C2.37453235 40.36020182 2.69105296 30.47126873 2.78515625 20.55859375 C2.80642578 19.42760254 2.82769531 18.29661133 2.84960938 17.13134766 C2.85412109 16.06706543 2.85863281 15.0027832 2.86328125 13.90625 C2.87262695 12.95886963 2.88197266 12.01148926 2.89160156 11.03540039 C2.4695363 8.02861905 1.63132216 6.66550183 -0.46484375 4.49609375 C-2.95674858 3.85025383 -2.95674858 3.85025383 -5.46484375 4.49609375 C-7.28971889 6.07378357 -7.28971889 6.07378357 -8.65234375 8.24609375 C-9.14089844 8.9421875 -9.62945312 9.63828125 -10.1328125 10.35546875 C-11.37792679 12.35641487 -12.45388837 14.36877532 -13.46484375 16.49609375 C-15.11484375 16.49609375 -16.76484375 16.49609375 -18.46484375 16.49609375 C-20.58984375 10.87109375 -20.58984375 10.87109375 -19.46484375 7.49609375 C-18.80484375 7.82609375 -18.14484375 8.15609375 -17.46484375 8.49609375 C-17.46484375 9.15609375 -17.46484375 9.81609375 -17.46484375 10.49609375 C-16.80484375 10.49609375 -16.14484375 10.49609375 -15.46484375 10.49609375 C-15.23796875 9.77421875 -15.01109375 9.05234375 -14.77734375 8.30859375 C-11.42648864 1.12818995 -7.6025804 -0.33766508 0 0 Z " fill="#0C1515" transform="translate(113.46484375,-0.49609375)"/>
<path d="M0 0 C1.09248047 0.0009668 1.09248047 0.0009668 2.20703125 0.00195312 C7.59351504 0.04675752 7.59351504 0.04675752 9.875 1.1875 C9.875 2.1775 9.875 3.1675 9.875 4.1875 C10.535 4.5175 11.195 4.8475 11.875 5.1875 C12.24423077 10.60288462 12.24423077 10.60288462 10.375 13.5625 C9.88 14.09875 9.385 14.635 8.875 15.1875 C5.905 14.6925 5.905 14.6925 2.875 14.1875 C2.875 13.1975 2.875 12.2075 2.875 11.1875 C2.545 12.1775 2.215 13.1675 1.875 14.1875 C0.02734375 14.91796875 0.02734375 14.91796875 -2.1875 15.375 C-2.92097656 15.53355469 -3.65445313 15.69210938 -4.41015625 15.85546875 C-4.97605469 15.96503906 -5.54195312 16.07460937 -6.125 16.1875 C-6.455 15.5275 -6.785 14.8675 -7.125 14.1875 C-9.65233235 13.53194881 -9.65233235 13.53194881 -12.125 13.1875 C-11.465 10.8775 -10.805 8.5675 -10.125 6.1875 C-10.785 6.1875 -11.445 6.1875 -12.125 6.1875 C-12.125 4.8675 -12.125 3.5475 -12.125 2.1875 C-8.31069928 -0.33872535 -4.40183761 -0.07480762 0 0 Z " fill="#E5C0C2" transform="translate(136.125,107.8125)"/>
<path d="M0 0 C0.66 0 1.32 0 2 0 C1.94199219 1.17433594 1.88398438 2.34867187 1.82421875 3.55859375 C1.30726543 18.76974646 3.13905213 34.01583339 13.6640625 45.875 C15.3773907 48.60029399 15.17839722 50.03505524 14.75 53.1875 C14.64171875 54.06792969 14.5334375 54.94835937 14.421875 55.85546875 C14 58 14 58 13 59 C12.92794489 60.68608966 12.91613932 62.37500659 12.9375 64.0625 C12.95103516 65.44115234 12.95103516 65.44115234 12.96484375 66.84765625 C12.97644531 67.55792969 12.98804688 68.26820313 13 69 C13.495 68.01 13.495 68.01 14 67 C16.64 67 19.28 67 22 67 C21.67 68.65 21.34 70.3 21 72 C17.25 73.125 17.25 73.125 15 72 C14.67 72.99 14.34 73.98 14 75 C11.50302932 72.73712032 10.12479002 70.91561049 9.6640625 67.53515625 C9.59770829 62.80410076 9.99741579 58.6707824 11.3125 54.125 C11.91908973 51.9855782 11.91908973 51.9855782 12 50 C9.96050874 47.29199403 9.96050874 47.29199403 7 45 C-0.24805285 35.14684989 -2.17969553 25.90948924 -2.1875 13.875 C-2.19974609 12.87339844 -2.21199219 11.87179688 -2.22460938 10.83984375 C-2.22654297 9.87949219 -2.22847656 8.91914062 -2.23046875 7.9296875 C-2.23457764 7.05554199 -2.23868652 6.18139648 -2.24291992 5.28076172 C-2 3 -2 3 0 0 Z " fill="#0B1519" transform="translate(10,101)"/>
<path d="M0 0 C0.33 0.66 0.66 1.32 1 2 C3.97 2 6.94 2 10 2 C13 7.75 13 7.75 13 10 C10.03 10 7.06 10 4 10 C4 10.99 4 11.98 4 13 C5.32 13.33 6.64 13.66 8 14 C8 14.66 8 15.32 8 16 C5.58394775 16.81436587 3.16720002 17.62655397 0.75 18.4375 C0.06808594 18.66759766 -0.61382812 18.89769531 -1.31640625 19.13476562 C-4.52066613 20.20803714 -7.70046619 21.26015608 -11 22 C-9.53181332 18.89257577 -7.79975 16.09528261 -5.875 13.25 C-5.33617188 12.45078125 -4.79734375 11.6515625 -4.2421875 10.828125 C-3.62730469 9.92320312 -3.62730469 9.92320312 -3 9 C-3.58265625 8.87753906 -4.1653125 8.75507813 -4.765625 8.62890625 C-8.2075684 7.6601075 -10.93495511 5.8272383 -14 4 C-14 3.34 -14 2.68 -14 2 C-13.07316406 1.93941406 -12.14632812 1.87882813 -11.19140625 1.81640625 C-9.39509766 1.69072266 -9.39509766 1.69072266 -7.5625 1.5625 C-5.77005859 1.44068359 -5.77005859 1.44068359 -3.94140625 1.31640625 C-1.11429756 1.32343886 -1.11429756 1.32343886 0 0 Z " fill="#3B3412" transform="translate(111,158)"/>
<path d="M0 0 C2.76142665 1.01736771 3.68085371 1.36170741 5 4 C5.28394278 6.93407542 5.48994001 9.15046384 5 12 C2.24523151 15.33911332 0.67935843 15.92972154 -3.625 16.375 C-7 16 -7 16 -10 14 C-10 13.34 -10 12.68 -10 12 C-10.66 12 -11.32 12 -12 12 C-12.4206933 7.70892835 -12.45543836 5.64865463 -9.9375 2.0625 C-6.28112744 -0.50474031 -4.384888 -0.55807665 0 0 Z " fill="#2A2925" transform="translate(74,96)"/>
<path d="M0 0 C7.51171766 2.78211765 12.74408767 7.81345672 17.375 14.25 C19.53968301 19.05843522 19.59094156 24.0674026 19.375 29.25 C18.055 29.58 16.735 29.91 15.375 30.25 C15.23964844 29.4765625 15.10429687 28.703125 14.96484375 27.90625 C12.6020739 16.47440546 6.93234251 10.62156168 -2.625 4.25 C-5.36372955 3.79227937 -5.36372955 3.79227937 -8.3125 3.625 C-9.80330078 3.51285156 -9.80330078 3.51285156 -11.32421875 3.3984375 C-12.08347656 3.34945312 -12.84273438 3.30046875 -13.625 3.25 C-13.625 2.26 -13.625 1.27 -13.625 0.25 C-9.42737965 -1.84881017 -4.4371335 -0.91802762 0 0 Z " fill="#1F1810" transform="translate(121.625,66.75)"/>
<path d="M0 0 C0.99 0.33 1.98 0.66 3 1 C4.09506492 4.28519475 4.09960608 6.73663415 4.0625 10.1875 C4.05347656 11.27417969 4.04445312 12.36085937 4.03515625 13.48046875 C4.02355469 14.31191406 4.01195312 15.14335937 4 16 C0.7 16 -2.6 16 -6 16 C-6 14.02 -6 12.04 -6 10 C-6.66 10 -7.32 10 -8 10 C-8.02701408 12.10409639 -8.04640223 14.20829178 -8.0625 16.3125 C-8.07410156 17.48425781 -8.08570313 18.65601563 -8.09765625 19.86328125 C-8.14899898 23.03059195 -8.14899898 23.03059195 -7 26 C-7.99 26 -8.98 26 -10 26 C-10.19436491 23.54203147 -10.3807742 21.08390706 -10.5625 18.625 C-10.61857422 17.92632812 -10.67464844 17.22765625 -10.73242188 16.5078125 C-11.11328125 11.2265625 -11.11328125 11.2265625 -10 9 C-11.98 9 -13.96 9 -16 9 C-16.33 8.34 -16.66 7.68 -17 7 C-16.19175781 6.74605469 -15.38351563 6.49210938 -14.55078125 6.23046875 C-13.48214844 5.88628906 -12.41351563 5.54210937 -11.3125 5.1875 C-10.25675781 4.85105469 -9.20101562 4.51460937 -8.11328125 4.16796875 C-4.97063424 3.10752533 -4.97063424 3.10752533 -2.29296875 1.30078125 C-1.53628906 0.87152344 -0.77960938 0.44226563 0 0 Z " fill="#3F3712" transform="translate(161,150)"/>
<path d="M0 0 C0.33 0 0.66 0 1 0 C1.33 2.97 1.66 5.94 2 9 C2.66 9 3.32 9 4 9 C4.33 8.01 4.66 7.02 5 6 C5.33 15.24 5.66 24.48 6 34 C6.99 34.33 7.98 34.66 9 35 C9 35.99 9 36.98 9 38 C7.58456585 38.19658808 6.16755969 38.38187546 4.75 38.5625 C3.56664063 38.71912109 3.56664063 38.71912109 2.359375 38.87890625 C-0.00532874 39.00027349 -1.7511037 38.69633257 -4 38 C-3.67 36.68 -3.34 35.36 -3 34 C-2.01 34 -1.02 34 0 34 C0 22.78 0 11.56 0 0 Z " fill="#373026" transform="translate(92,14)"/>
<path d="M0 0 C0.33 0.99 0.66 1.98 1 3 C0.01 3.33 -0.98 3.66 -2 4 C-2.33 4.99 -2.66 5.98 -3 7 C-1.68 6.67 -0.36 6.34 1 6 C1.33 4.35 1.66 2.7 2 1 C4.475 1.99 4.475 1.99 7 3 C7.08131463 4.43655854 7.13933559 5.8744483 7.1875 7.3125 C7.22230469 8.11300781 7.25710937 8.91351563 7.29296875 9.73828125 C7 12 7 12 5.7734375 13.77734375 C3.51111994 15.33704727 2.16314258 15.339807 -0.5625 15.25 C-1.74005859 15.22679688 -1.74005859 15.22679688 -2.94140625 15.203125 C-5 15 -5 15 -7 14 C-8.25249168 10.24252497 -8.45035914 6.93040706 -8 3 C-5.95958596 -0.4364868 -3.79139375 -0.3074103 0 0 Z " fill="#160D0E" transform="translate(114,97)"/>
<path d="M0 0 C1.11375 0.185625 1.11375 0.185625 2.25 0.375 C1.92 2.025 1.59 3.675 1.25 5.375 C1.91 5.375 2.57 5.375 3.25 5.375 C3.58 4.055 3.91 2.735 4.25 1.375 C5.57 1.375 6.89 1.375 8.25 1.375 C8.25 3.025 8.25 4.675 8.25 6.375 C8.6625 5.88 9.075 5.385 9.5 4.875 C11.25 3.375 11.25 3.375 15.25 3.375 C14.63722388 6.33675123 13.99627478 7.75558783 12.25 10.375 C12.91 11.035 13.57 11.695 14.25 12.375 C12.93 13.365 11.61 14.355 10.25 15.375 C8.6 14.385 6.95 13.395 5.25 12.375 C5.91 12.045 6.57 11.715 7.25 11.375 C7.91 11.705 8.57 12.035 9.25 12.375 C9.25 11.715 9.25 11.055 9.25 10.375 C8.59 10.045 7.93 9.715 7.25 9.375 C7.91 9.375 8.57 9.375 9.25 9.375 C9.25 8.715 9.25 8.055 9.25 7.375 C8.26 7.375 7.27 7.375 6.25 7.375 C6.25 8.365 6.25 9.355 6.25 10.375 C1.9335078 11.13673392 -1.49433453 11.53563604 -5.75 10.375 C-6.08 11.035 -6.41 11.695 -6.75 12.375 C-7.11875341 8.50308922 -6.82486527 6.52473053 -5.0625 3 C-2.75 0.375 -2.75 0.375 0 0 Z M5.25 14.375 C7.25 15.375 7.25 15.375 7.25 15.375 Z " fill="#DDB4B8" transform="translate(44.75,111.625)"/>
<path d="M0 0 C2.475 0.495 2.475 0.495 5 1 C4.67 2.65 4.34 4.3 4 6 C5.65 6 7.3 6 9 6 C9 6.99 9 7.98 9 9 C9.99 8.34 10.98 7.68 12 7 C14.6875 6.875 14.6875 6.875 17 7 C17.33 5.68 17.66 4.36 18 3 C18.66 3.33 19.32 3.66 20 4 C20 4.66 20 5.32 20 6 C21.83700789 6.77242269 21.83700789 6.77242269 24 7 C25.77190909 5.64555699 25.77190909 5.64555699 27 4 C27.87491004 6.4497481 28.12900603 7.63448293 27.25 10.125 C26 12 26 12 23 14 C16.3023973 14.68853859 9.69800011 15.00400008 4 11 C1.6870518 8.6870518 1.50419025 7.52095125 0.875 4.375 C0.70742187 3.55773437 0.53984375 2.74046875 0.3671875 1.8984375 C0.24601562 1.27195312 0.12484375 0.64546875 0 0 Z " fill="#EEC6C5" transform="translate(121,115)"/>
<path d="M0 0 C1.07021121 3.64022546 0.72344899 4.64884919 -1 8 C-1.38749213 10.32495277 -1.72982839 12.65851268 -2 15 C-0.68 14.67 0.64 14.34 2 14 C2 13.34 2 12.68 2 12 C2.66 12 3.32 12 4 12 C3.67 13.65 3.34 15.3 3 17 C2.01 17 1.02 17 0 17 C-0.03738281 17.68964844 -0.07476562 18.37929687 -0.11328125 19.08984375 C-0.5129879 24.80329758 -1.3219971 29.7711312 -3.37890625 35.125 C-4.15722366 37.14543884 -4.15722366 37.14543884 -4 40 C-5.98 40 -7.96 40 -10 40 C-10 38.35 -10 36.7 -10 35 C-11.32 34.34 -12.64 33.68 -14 33 C-14 31.35 -14 29.7 -14 28 C-10.37 28 -6.74 28 -3 28 C-2.64602298 20.02281557 -2.64602298 20.02281557 -4.3125 12.3125 C-5.26365025 7.72968518 -3.56976117 5.57563354 -1.1640625 1.72265625 C-0.77992188 1.15417969 -0.39578125 0.58570313 0 0 Z " fill="#1F97C5" transform="translate(170,140)"/>
<path d="M0 0 C1.65 0 3.3 0 5 0 C5.33 1.65 5.66 3.3 6 5 C11.7974423 5.24428343 11.7974423 5.24428343 17 3 C16.25 7.75 16.25 7.75 14 10 C9.22128052 10.28110115 4.71419439 9.76966439 0 9 C0 9.99 0 10.98 0 12 C2.64 12.33 5.28 12.66 8 13 C7.67 13.99 7.34 14.98 7 16 C1.77984085 16.43501326 1.77984085 16.43501326 -1 16 C-3.5 13.6875 -3.5 13.6875 -5 11 C-5 10.01 -5 9.02 -5 8 C-6.32 7.34 -7.64 6.68 -9 6 C-9 5.01 -9 4.02 -9 3 C-4.545 3.99 -4.545 3.99 0 5 C0 3.35 0 1.7 0 0 Z " fill="#251F18" transform="translate(90,117)"/>
<path d="M0 0 C6.6 0.33 13.2 0.66 20 1 C20 1.33 20 1.66 20 2 C15.545 2.495 15.545 2.495 11 3 C18.425 3.99 18.425 3.99 26 5 C23.66666667 7.33333333 21.33333333 9.66666667 19 12 C17 11.8125 17 11.8125 15 11 C14.34 10.01 13.68 9.02 13 8 C10.94074861 7.27617533 10.94074861 7.27617533 9 7 C8.01 8.485 8.01 8.485 7 10 C5.67405895 10.36162029 4.34061543 10.69728039 3 11 C2.67 11.66 2.34 12.32 2 13 C0.68 13 -0.64 13 -2 13 C-0.54955729 8.89041233 1.51110752 5.56741255 4 2 C2.68 1.34 1.36 0.68 0 0 Z " fill="#3B3906" transform="translate(64,156)"/>
<path d="M0 0 C0.66 0.33 1.32 0.66 2 1 C1.74605469 1.53367187 1.49210938 2.06734375 1.23046875 2.6171875 C0.88628906 3.36226563 0.54210938 4.10734375 0.1875 4.875 C-0.14894531 5.59429687 -0.48539063 6.31359375 -0.83203125 7.0546875 C-4.0753924 15.23359822 -5.46449512 22.3778626 -5.3125 31.1875 C-5.31733398 32.60579102 -5.31733398 32.60579102 -5.32226562 34.05273438 C-5.26316447 41.76274878 -3.65775662 47.94004511 -0.375 54.9375 C0.07101562 55.89527344 0.51703125 56.85304687 0.9765625 57.83984375 C1.31429688 58.55269531 1.65203125 59.26554687 2 60 C1.34 60 0.68 60 0 60 C-2.21747812 57.69723426 -2.96760006 56.47519908 -3.1875 53.25 C-3.125625 52.5075 -3.06375 51.765 -3 51 C-4.32 50.67 -5.64 50.34 -7 50 C-7.99 46.535 -7.99 46.535 -9 43 C-9.99 43.495 -9.99 43.495 -11 44 C-10.88505443 40.99931553 -10.75832795 37.99987891 -10.625 35 C-10.5940625 34.16082031 -10.563125 33.32164063 -10.53125 32.45703125 C-10.27950298 27.04447022 -9.48441108 22.21354136 -8 17 C-7.34 17 -6.68 17 -6 17 C-5.814375 15.94039062 -5.814375 15.94039062 -5.625 14.859375 C-4.97171951 11.87061674 -4.0550417 9.12033404 -3 6.25 C-2.649375 5.28578125 -2.29875 4.3215625 -1.9375 3.328125 C-1 1 -1 1 0 0 Z " fill="#1AA1CD" transform="translate(14,84)"/>
<path d="M0 0 C0.99 0.33 1.98 0.66 3 1 C2.814375 1.639375 2.62875 2.27875 2.4375 2.9375 C2.293125 3.618125 2.14875 4.29875 2 5 C2.33 5.33 2.66 5.66 3 6 C3.25035974 9.30516934 3.18521952 12.62396041 3.1875 15.9375 C3.19974609 16.87013672 3.21199219 17.80277344 3.22460938 18.76367188 C3.22750977 20.10075195 3.22750977 20.10075195 3.23046875 21.46484375 C3.23457764 22.285896 3.23868652 23.10694824 3.24291992 23.95288086 C3 26 3 26 1 28 C-0.125 22.25 -0.125 22.25 1 20 C-0.32 19.67 -1.64 19.34 -3 19 C-3.33 17.02 -3.66 15.04 -4 13 C-4.33 14.98 -4.66 16.96 -5 19 C-5.66 19 -6.32 19 -7 19 C-6.95875 20.11375 -6.9175 21.2275 -6.875 22.375 C-7 26 -7 26 -9 28 C-8.40978877 17.11162034 -6.20852709 9.00604523 0 0 Z " fill="#F3C6BE" transform="translate(81,4)"/>
<path d="M0 0 C1.50433594 0.01353516 1.50433594 0.01353516 3.0390625 0.02734375 C3.80992188 0.03894531 4.58078125 0.05054688 5.375 0.0625 C5.705 1.7125 6.035 3.3625 6.375 5.0625 C5.35019531 5.12566406 4.32539062 5.18882813 3.26953125 5.25390625 C-4.09814574 5.65577089 -4.09814574 5.65577089 -10.6640625 8.54296875 C-11.96308541 10.34805273 -12.83421341 11.9866852 -13.625 14.0625 C-14.058125 15.196875 -14.49125 16.33125 -14.9375 17.5 C-15.164375 18.345625 -15.39125 19.19125 -15.625 20.0625 C-16.945 19.7325 -18.265 19.4025 -19.625 19.0625 C-18.88807256 11.32476183 -14.95404045 7.03927819 -9.2109375 2.26171875 C-6.06720174 -0.11544105 -3.88621701 -0.04518857 0 0 Z " fill="#554F40" transform="translate(67.625,63.9375)"/>
<path d="M0 0 C6.25350037 5.10489826 12.59573688 10.5272273 16 18 C8.96354423 16.11380178 1.96640656 14.13072305 -5 12 C-3.02 9.03 -3.02 9.03 -1 6 C-2.65 6 -4.3 6 -6 6 C-5.67 5.34 -5.34 4.68 -5 4 C-4.34 3.855625 -3.68 3.71125 -3 3.5625 C-2.01 3.2840625 -2.01 3.2840625 -1 3 C-0.67 2.01 -0.34 1.02 0 0 Z " fill="#3E3717" transform="translate(72,162)"/>
<path d="M0 0 C1.32 0.66 2.64 1.32 4 2 C3.49394035 6.38585031 0.79780785 8.78252098 -2 12 C-2.33 12.66 -2.66 13.32 -3 14 C-4.98 14 -6.96 14 -9 14 C-9.66 12.68 -10.32 11.36 -11 10 C-11.66 10 -12.32 10 -13 10 C-17 5.52941176 -17 5.52941176 -17 3 C-15.35 2.34 -13.7 1.68 -12 1 C-11.01 2.98 -10.02 4.96 -9 7 C-6.59122743 6.88658466 -6.59122743 6.88658466 -4 6 C-2.21030974 3.57327433 -2.21030974 3.57327433 -1 1 C-0.67 0.67 -0.34 0.34 0 0 Z " fill="#582122" transform="translate(100,166)"/>
<path d="M0 0 C3.63 0 7.26 0 11 0 C11 1.32 11 2.64 11 4 C11.66 4 12.32 4 13 4 C16 9.75 16 9.75 16 12 C13.69 12 11.38 12 9 12 C9.66 13.65 10.32 15.3 11 17 C10.40832031 17.19335938 9.81664063 17.38671875 9.20703125 17.5859375 C8.02173828 17.97652344 8.02173828 17.97652344 6.8125 18.375 C5.98621094 18.64699219 5.15992187 18.91898438 4.30859375 19.19921875 C1.9173865 19.98950578 1.9173865 19.98950578 -0.625 21.1875 C-3.79961811 22.27355356 -6.67242039 22.13049332 -10 22 C-7.09083887 19.59032361 -4.56302424 18.34602049 -0.9375 17.3125 C-0.08027344 17.06113281 0.77695313 16.80976563 1.66015625 16.55078125 C4 16 4 16 7 16 C7 15.34 7 14.68 7 14 C5.68 13.67 4.36 13.34 3 13 C3 12.01 3 11.02 3 10 C5.97 10 8.94 10 12 10 C11.505 9.05125 11.01 8.1025 10.5 7.125 C9 4 9 4 9 2 C6.03 2 3.06 2 0 2 C0 1.34 0 0.68 0 0 Z " fill="#0C0802" transform="translate(112,158)"/>
<path d="M0 0 C0.66 0 1.32 0 2 0 C2 7.92 2 15.84 2 24 C-1.93822784 25.96911392 -4.75995073 26.55589691 -9.0625 27.25 C-15.40798626 28.36997406 -20.38941548 30.39170368 -25.92578125 33.79296875 C-28 35 -28 35 -30 35 C-30 35.66 -30 36.32 -30 37 C-31.485 37.495 -31.485 37.495 -33 38 C-33 37.01 -33 36.02 -33 35 C-32.34 35 -31.68 35 -31 35 C-31 34.34 -31 33.68 -31 33 C-29.02 32.34 -27.04 31.68 -25 31 C-25 30.34 -25 29.68 -25 29 C-23.02 28.67 -21.04 28.34 -19 28 C-19 27.34 -19 26.68 -19 26 C-13.14587549 23.28791972 -7.37978556 23.38665367 -1 23 C-0.67 15.41 -0.34 7.82 0 0 Z " fill="#18A1C1" transform="translate(67,26)"/>
<path d="M0 0 C3.28239543 0.56593025 4.94479668 1.35485035 7 4 C7.35644531 6.38842773 7.35644531 6.38842773 7.328125 9.18359375 C7.32296875 10.19357422 7.3178125 11.20355469 7.3125 12.24414062 C7.291875 13.29794922 7.27125 14.35175781 7.25 15.4375 C7.24484375 16.48744141 7.2396875 17.53738281 7.234375 18.61914062 C7.15522465 26.38082197 7.15522465 26.38082197 6.4934082 29.02075195 C5.90055919 31.39889492 5.8874061 33.53460077 5.90234375 35.984375 C5.90556641 36.91894531 5.90878906 37.85351562 5.91210938 38.81640625 C5.92048828 39.78449219 5.92886719 40.75257812 5.9375 41.75 C5.94201172 42.73355469 5.94652344 43.71710937 5.95117188 44.73046875 C5.96293517 47.15370791 5.97937316 49.57682273 6 52 C6.66 52.33 7.32 52.66 8 53 C6.35 52.67 4.7 52.34 3 52 C2.12999463 49.04240205 1.92295882 46.56136349 2.0859375 43.48828125 C2.12976563 42.64845703 2.17359375 41.80863281 2.21875 40.94335938 C2.2703125 40.07517578 2.321875 39.20699219 2.375 38.3125 C2.41882813 37.43271484 2.46265625 36.55292969 2.5078125 35.64648438 C2.86953444 29.13046556 2.86953444 29.13046556 4 28 C4.27986267 24.77945916 4.23185967 21.54374715 4.25 18.3125 C4.270625 17.41337891 4.29125 16.51425781 4.3125 15.58789062 C4.34382225 10.25136255 3.90183692 6.6531981 1 2 C0.67 1.34 0.34 0.68 0 0 Z " fill="#2D7E93" transform="translate(116,0)"/>
<path d="M0 0 C4.94225888 1.83046625 8.43177152 3.83515727 11.375 8.25 C10.385 8.58 9.395 8.91 8.375 9.25 C7.715 9.91 7.055 10.57 6.375 11.25 C4.91015625 10.01302083 3.4453125 8.77604167 1.98046875 7.5390625 C-1.57843906 4.68154528 -3.82492438 3.94177004 -8.3125 3.625 C-9.80330078 3.51285156 -9.80330078 3.51285156 -11.32421875 3.3984375 C-12.08347656 3.34945312 -12.84273438 3.30046875 -13.625 3.25 C-13.625 2.26 -13.625 1.27 -13.625 0.25 C-9.42737965 -1.84881017 -4.4371335 -0.91802762 0 0 Z " fill="#211C11" transform="translate(121.625,66.75)"/>
<path d="M0 0 C2.33333333 0.33333333 4.66666667 0.66666667 7 1 C7.33 0.67 7.66 0.34 8 0 C10.33297433 -0.04092937 12.66705225 -0.04241723 15 0 C15.33 0.66 15.66 1.32 16 2 C19.02934491 2.65772428 19.02934491 2.65772428 22 3 C19.34638292 4.5479433 17.17157254 5.18706427 14.125 5.875 C10.03675078 6.82433128 7.34244395 8.49316704 4 11 C3.34 10.34 2.68 9.68 2 9 C2 7.68 2 6.36 2 5 C1.34 4.67 0.68 4.34 0 4 C0.33 3.34 0.66 2.68 1 2 C0.34 1.67 -0.32 1.34 -1 1 C-0.67 0.67 -0.34 0.34 0 0 Z " fill="#F4EFD0" transform="translate(50,59)"/>
<path d="M0 0 C2.28891388 4.42523351 3.12299644 7.76970146 3.09765625 12.76171875 C3.09443359 13.87998047 3.09121094 14.99824219 3.08789062 16.15039062 C3.07951172 17.31763672 3.07113281 18.48488281 3.0625 19.6875 C3.05798828 20.86634766 3.05347656 22.04519531 3.04882812 23.25976562 C3.03703273 26.17322789 3.0205727 29.08658863 3 32 C2.34 32 1.68 32 1 32 C1 33.32 1 34.64 1 36 C0.34 36 -0.32 36 -1 36 C-1.02465098 31.03377651 -1.04283649 26.06758834 -1.05493164 21.10131836 C-1.0599719 19.41055684 -1.06680405 17.71979971 -1.07543945 16.02905273 C-1.08751857 13.60399293 -1.09323123 11.17899056 -1.09765625 8.75390625 C-1.10281754 7.99348526 -1.10797882 7.23306427 -1.11329651 6.44960022 C-1.11349238 4.6326743 -1.06197277 2.81586873 -1 1 C-0.67 0.67 -0.34 0.34 0 0 Z " fill="#060A07" transform="translate(172,95)"/>
<path d="M0 0 C0.99 0.66 1.98 1.32 3 2 C2.85950482 3.47968324 2.71245174 4.95874516 2.5625 6.4375 C2.48128906 7.26121094 2.40007813 8.08492187 2.31640625 8.93359375 C2 11 2 11 1 12 C0.92794489 13.68608966 0.91613932 15.37500659 0.9375 17.0625 C0.94652344 17.98160156 0.95554687 18.90070313 0.96484375 19.84765625 C0.97644531 20.55792969 0.98804688 21.26820313 1 22 C1.33 21.34 1.66 20.68 2 20 C4.64 20 7.28 20 10 20 C9.67 21.65 9.34 23.3 9 25 C5.25 26.125 5.25 26.125 3 25 C2.67 25.99 2.34 26.98 2 28 C-0.49697068 25.73712032 -1.87520998 23.91561049 -2.3359375 20.53515625 C-2.41309513 15.03381713 -1.78853243 10.05591626 -0.2421875 4.77734375 C-0.16226562 4.19082031 -0.08234375 3.60429687 0 3 C-0.66 2.34 -1.32 1.68 -2 1 C-1.34 0.67 -0.68 0.34 0 0 Z " fill="#021C30" transform="translate(22,148)"/>
<path d="M0 0 C0.99 0 1.98 0 3 0 C3 1.65 3 3.3 3 5 C2.01 5 1.02 5 0 5 C0.99 5.66 1.98 6.32 3 7 C3 7.99 3 8.98 3 10 C0.70858714 10.05384521 -1.58318188 10.09272087 -3.875 10.125 C-5.78925781 10.15980469 -5.78925781 10.15980469 -7.7421875 10.1953125 C-11 10 -11 10 -13 8 C-12.67 6.35 -12.34 4.7 -12 3 C-8.04 3 -4.08 3 0 3 C0 2.01 0 1.02 0 0 Z " fill="#F1C9C5" transform="translate(51,119)"/>
<path d="M0 0 C11.88 0 23.76 0 36 0 C35.67 0.66 35.34 1.32 35 2 C30.38 2 25.76 2 21 2 C21 2.66 21 3.32 21 4 C18.45805839 3.85811015 15.91652007 3.71160845 13.375 3.5625 C12.30572266 3.50352539 12.30572266 3.50352539 11.21484375 3.44335938 C7.08196318 3.19690319 3.07730976 2.76529947 -1 2 C-0.67 1.34 -0.34 0.68 0 0 Z " fill="#0C0A08" transform="translate(75,158)"/>
<path d="M0 0 C0.99 0.495 0.99 0.495 2 1 C2 1.66 2 2.32 2 3 C2.99 3 3.98 3 5 3 C7.93902269 10.80867735 8.37543817 17.83644466 8.1875 26.125 C8.17396484 27.27226563 8.16042969 28.41953125 8.14648438 29.6015625 C8.11148454 32.40154958 8.06238859 35.20051217 8 38 C7.67 38 7.34 38 7 38 C6.67 30.08 6.34 22.16 6 14 C5.34 13.67 4.68 13.34 4 13 C4 19.6 4 26.2 4 33 C3.67 33 3.34 33 3 33 C2.91697632 31.87972412 2.91697632 31.87972412 2.83227539 30.73681641 C2.58001878 27.36587008 2.3213415 23.99544681 2.0625 20.625 C1.97548828 19.449375 1.88847656 18.27375 1.79882812 17.0625 C1.71181641 15.94101563 1.62480469 14.81953125 1.53515625 13.6640625 C1.456604 12.62717285 1.37805176 11.5902832 1.29711914 10.52197266 C1.14567233 8.00843528 1.14567233 8.00843528 0 6 C-0.039992 4.00039988 -0.04346799 1.99952758 0 0 Z " fill="#2C4342" transform="translate(168,88)"/>
<path d="M0 0 C0.66 0 1.32 0 2 0 C2 1.98 2 3.96 2 6 C5.3 6 8.6 6 12 6 C11.01 7.485 11.01 7.485 10 9 C7.69 8.67 5.38 8.34 3 8 C3.60183749 10.02045442 4.27306096 12.02111039 5 14 C5.66 14.33 6.32 14.66 7 15 C7 16.65 7 18.3 7 20 C5 20 5 20 3.4921875 18.85546875 C-0.1699741 15.07831174 -1.41646548 12.51624527 -1.4375 7.1875 C-1.2215478 2.4430956 -1.2215478 2.4430956 0 0 Z " fill="#100A04" transform="translate(153,160)"/>
<path d="M0 0 C0.33 0 0.66 0 1 0 C1.89316269 5.93609666 1.97040422 11.06975197 1 17 C0.01 17 -0.98 17 -2 17 C-2.33 22.28 -2.66 27.56 -3 33 C-6.58122622 27.62816067 -5.53425431 20.36672329 -4.546875 14.14453125 C-4.08800561 12.08289661 -3.552802 10.03845737 -3 8 C-2.34 8 -1.68 8 -1 8 C-1.020625 7.05125 -1.04125 6.1025 -1.0625 5.125 C-1 2 -1 2 0 0 Z " fill="#EFC2D2" transform="translate(77,15)"/>
<path d="M0 0 C0.33 0 0.66 0 1 0 C1 1.98 1 3.96 1 6 C1.66 6 2.32 6 3 6 C3 4.68 3 3.36 3 2 C3.66 2 4.32 2 5 2 C3.20585311 10.13661354 0.26941128 16.8566808 -4 24 C-4.66 23.01 -5.32 22.02 -6 21 C-6.66 20.67 -7.32 20.34 -8 20 C-7.49339844 19.22076172 -7.49339844 19.22076172 -6.9765625 18.42578125 C-3.02560898 12.24813428 -0.86836401 7.38109412 0 0 Z " fill="#14191A" transform="translate(170,125)"/>
<path d="M0 0 C0.99 0.33 1.98 0.66 3 1 C3.60550459 8.26605505 3.60550459 8.26605505 0.9375 11.5 C-2.6042264 13.30854114 -5.07443924 13.30788712 -9 13 C-8.67 11.68 -8.34 10.36 -8 9 C-6.02 9 -4.04 9 -2 9 C-2 8.34 -2 7.68 -2 7 C-3.98 7 -5.96 7 -8 7 C-7.67 6.34 -7.34 5.68 -7 5 C-5.35 5 -3.7 5 -2 5 C-2 4.01 -2 3.02 -2 2 C-1.34 2 -0.68 2 0 2 C0 1.34 0 0.68 0 0 Z " fill="#16140E" transform="translate(76,99)"/>
<path d="M0 0 C0.33 1.32 0.66 2.64 1 4 C1.66 4 2.32 4 3 4 C3 5.32 3 6.64 3 8 C1.68 8.33 0.36 8.66 -1 9 C-0.773125 9.53625 -0.54625 10.0725 -0.3125 10.625 C0.15335018 14.1654614 -1.10311105 16.05655163 -3 19 C-5.11328125 19.67578125 -5.11328125 19.67578125 -7 20 C-6.96540904 11.87112547 -4.60889546 6.62440632 0 0 Z " fill="#F3C4C8" transform="translate(105,6)"/>
<path d="M0 0 C1.11375 0.185625 1.11375 0.185625 2.25 0.375 C2.25 3.345 2.25 6.315 2.25 9.375 C3.57 9.045 4.89 8.715 6.25 8.375 C6.25 9.035 6.25 9.695 6.25 10.375 C1.9335078 11.13673392 -1.49433453 11.53563604 -5.75 10.375 C-6.08 11.035 -6.41 11.695 -6.75 12.375 C-7.11875341 8.50308922 -6.82486527 6.52473053 -5.0625 3 C-2.75 0.375 -2.75 0.375 0 0 Z " fill="#D5B1B5" transform="translate(44.75,111.625)"/>
<path d="M0 0 C2.475 0.99 2.475 0.99 5 2 C5.08131463 3.43655854 5.13933559 4.8744483 5.1875 6.3125 C5.22230469 7.11300781 5.25710937 7.91351563 5.29296875 8.73828125 C5 11 5 11 3.6875 12.78125 C1.18004388 14.59219053 -0.99920026 14.20005332 -4 14 C-3.67 13.01 -3.34 12.02 -3 11 C-2.01 11 -1.02 11 0 11 C0 10.34 0 9.68 0 9 C-1.65 9 -3.3 9 -5 9 C-5 8.34 -5 7.68 -5 7 C-3.68 7.33 -2.36 7.66 -1 8 C-0.67 5.36 -0.34 2.72 0 0 Z " fill="#0B0A0A" transform="translate(116,98)"/>
<path d="M0 0 C0.33 0 0.66 0 1 0 C1.95779773 9.0103935 -0.03194346 15.44040599 -5 23 C-7.96830181 26.42210234 -11.55956913 28.91989519 -16 30 C-16.99 29.34 -17.98 28.68 -19 28 C-18.38511719 27.82984375 -17.77023438 27.6596875 -17.13671875 27.484375 C-12.09986362 26.03300513 -12.09986362 26.03300513 -7.9375 23 C-6.78778306 20.91540797 -6.78778306 20.91540797 -7 18 C-7 16.68 -7 15.36 -7 14 C-6.34 14 -5.68 14 -5 14 C-4.67 14.66 -4.34 15.32 -4 16 C-2.68 10.72 -1.36 5.44 0 0 Z " fill="#EBEACD" transform="translate(169,121)"/>
<path d="M0 0 C0.33 0 0.66 0 1 0 C1.02727345 2.66673742 1.04696948 5.33318869 1.0625 8 C1.07087891 8.74378906 1.07925781 9.48757812 1.08789062 10.25390625 C1.10966272 15.26148844 0.71541549 20.04279032 0 25 C-0.99 24.34 -1.98 23.68 -3 23 C-3.34057617 21.02880859 -3.34057617 21.02880859 -3.29296875 18.6484375 C-3.28330078 17.79765625 -3.27363281 16.946875 -3.26367188 16.0703125 C-3.23853516 15.18085937 -3.21339844 14.29140625 -3.1875 13.375 C-3.17396484 12.4778125 -3.16042969 11.580625 -3.14648438 10.65625 C-3.11106925 8.43690211 -3.06168461 6.21874812 -3 4 C-2.01 3.67 -1.02 3.34 0 3 C0 2.01 0 1.02 0 0 Z " fill="#0A0300" transform="translate(96,20)"/>
<path d="M0 0 C1.71832105 5.15496314 -0.19647711 9.99372402 -1.4375 15.125 C-1.68371094 16.15882812 -1.92992188 17.19265625 -2.18359375 18.2578125 C-3.16653836 21.55937764 -4.57294044 23.57294044 -7 26 C-6.69539676 16.28315665 -5.46009542 8.19014313 0 0 Z " fill="#0A1824" transform="translate(76,5)"/>
<path d="M0 0 C3.63 0 7.26 0 11 0 C8.14285714 8.71428571 8.14285714 8.71428571 4 11 C4 9.68 4 8.36 4 7 C2.68 6.34 1.36 5.68 0 5 C0 3.35 0 1.7 0 0 Z " fill="#1D252C" transform="translate(156,168)"/>
<path d="M0 0 C4.29 0 8.58 0 13 0 C10.70507812 3.02734375 10.70507812 3.02734375 8.41015625 6.0546875 C6.96035376 7.94357079 6.96035376 7.94357079 6 10 C5.34 10 4.68 10 4 10 C3.32845067 8.71086513 2.66291141 7.41859796 2 6.125 C1.62875 5.40570312 1.2575 4.68640625 0.875 3.9453125 C0 2 0 2 0 0 Z " fill="#08A1D4" transform="translate(92,0)"/>
<path d="M0 0 C0.99 0 1.98 0 3 0 C1.67521751 3.04570091 0.39495729 4.70378203 -2.25 6.6875 C-5.94549341 9.69635685 -8.26574668 13.10041306 -10.73828125 17.14453125 C-12 19 -12 19 -14 20 C-13.34 18.02 -12.68 16.04 -12 14 C-11.34 14 -10.68 14 -10 14 C-9.34 10.37 -8.68 6.74 -8 3 C-5.36 2.67 -2.72 2.34 0 2 C0 1.34 0 0.68 0 0 Z " fill="#1F9FCA" transform="translate(30,63)"/>
<path d="M0 0 C4.95 0.33 9.9 0.66 15 1 C12.66666667 3.33333333 10.33333333 5.66666667 8 8 C6.125 7.9375 6.125 7.9375 4 7 C0 2.66666667 0 2.66666667 0 0 Z " fill="#E8E7EA" transform="translate(75,160)"/>
<path d="M0 0 C1.22589844 0.01353516 1.22589844 0.01353516 2.4765625 0.02734375 C3.41628906 0.04474609 3.41628906 0.04474609 4.375 0.0625 C4.375 1.7125 4.375 3.3625 4.375 5.0625 C3.715 5.0625 3.055 5.0625 2.375 5.0625 C1.385 6.5475 1.385 6.5475 0.375 8.0625 C0.375 7.0725 0.375 6.0825 0.375 5.0625 C-0.945 5.0625 -2.265 5.0625 -3.625 5.0625 C-3.955 6.3825 -4.285 7.7025 -4.625 9.0625 C-5.285 9.0625 -5.945 9.0625 -6.625 9.0625 C-6.295 7.4125 -5.965 5.7625 -5.625 4.0625 C-6.945 3.7325 -8.265 3.4025 -9.625 3.0625 C-8.635 3.0625 -7.645 3.0625 -6.625 3.0625 C-6.625 2.4025 -6.625 1.7425 -6.625 1.0625 C-4.21954362 -0.14022819 -2.67503047 -0.03821472 0 0 Z " fill="#F2BFC4" transform="translate(52.625,107.9375)"/>
<path d="M0 0 C1 3 1 3 -0.0390625 5.48046875 C-0.56242187 6.37378906 -1.08578125 7.26710938 -1.625 8.1875 C-2.13289063 9.08855469 -2.64078125 9.98960938 -3.1640625 10.91796875 C-5 13 -5 13 -7.7109375 13.30078125 C-8.46632813 13.20152344 -9.22171875 13.10226563 -10 13 C-12.125 7.375 -12.125 7.375 -11 4 C-10.34 4.33 -9.68 4.66 -9 5 C-9 5.66 -9 6.32 -9 7 C-7.88625 6.401875 -6.7725 5.80375 -5.625 5.1875 C-4.99851562 4.85105469 -4.37203125 4.51460938 -3.7265625 4.16796875 C-1.69497635 2.95236507 -1.69497635 2.95236507 0 0 Z " fill="#030F0D" transform="translate(105,3)"/>
<path d="M0 0 C0.67258667 2.33163378 1.33847444 4.6652039 2 7 C2.18433594 7.64324219 2.36867187 8.28648437 2.55859375 8.94921875 C3.04434751 11.2060393 3.13280698 13.25553613 3.125 15.5625 C3.12757813 16.32691406 3.13015625 17.09132812 3.1328125 17.87890625 C3 20 3 20 2 23 C1.01 23.33 0.02 23.66 -1 24 C-1 18.06 -1 12.12 -1 6 C-1.99 5.67 -2.98 5.34 -4 5 C-3.625 3.0625 -3.625 3.0625 -3 1 C-1 0 -1 0 0 0 Z " fill="#050E11" transform="translate(165,145)"/>
<path d="M0 0 C3.37591285 1.12530428 4.28446799 2.16053617 6.5625 4.8125 C7.16191406 5.49957031 7.76132813 6.18664062 8.37890625 6.89453125 C9.89648749 8.86555845 10.97902958 10.73964261 12 13 C11.29875 12.80664062 10.5975 12.61328125 9.875 12.4140625 C4.26507866 10.874383 -1.35010447 9.38582343 -7 8 C-7 7.67 -7 7.34 -7 7 C-3.7 7 -0.4 7 3 7 C3.33 6.34 3.66 5.68 4 5 C2.68 4.34 1.36 3.68 0 3 C0 2.01 0 1.02 0 0 Z " fill="#373015" transform="translate(76,167)"/>
<path d="M0 0 C0.33 0 0.66 0 1 0 C1.02950374 4.08331765 1.04696535 8.1666072 1.0625 12.25 C1.07087891 13.38953125 1.07925781 14.5290625 1.08789062 15.703125 C1.10915721 23.18896398 0.75312038 30.55200457 0 38 C-0.33 38 -0.66 38 -1 38 C-2.07325072 25.04847438 -1.74494335 12.87797031 0 0 Z " fill="#C8C6AF" transform="translate(116,8)"/>
<path d="M0 0 C0.33 0.66 0.66 1.32 1 2 C0.34 2 -0.32 2 -1 2 C-1.33 2.99 -1.66 3.98 -2 5 C-2.33 4.67 -2.66 4.34 -3 4 C-4.66608987 3.95615553 -6.33380554 3.9603287 -8 4 C-8.99 4 -9.98 4 -11 4 C-12.70779973 5.62449243 -14.37550757 7.29220027 -16 9 C-16.99 9.495 -16.99 9.495 -18 10 C-14.89835941 0.13114358 -9.37509706 -0.73884303 0 0 Z " fill="#282321" transform="translate(116,0)"/>
<path d="M0 0 C1.299375 0.185625 2.59875 0.37125 3.9375 0.5625 C4.948125 0.706875 5.95875 0.85125 7 1 C6.01 1.495 6.01 1.495 5 2 C5.33 3.32 5.66 4.64 6 6 C4.35 6 2.7 6 1 6 C1 5.34 1 4.68 1 4 C-1.64 4 -4.28 4 -7 4 C-7.66 2.68 -8.32 1.36 -9 0 C-5.91432934 -1.54283533 -3.35620798 -0.55019803 0 0 Z " fill="#F8F3DD" transform="translate(97,126)"/>
<path d="M0 0 C-1.83491188 4.74018901 -3.91941459 9.36413251 -6 14 C-7.32 13.67 -8.64 13.34 -10 13 C-9.5250019 8.01251998 -8.10772305 4.93035563 -5 1 C-2 0 -2 0 0 0 Z " fill="#332A20" transform="translate(58,70)"/>
<path d="M0 0 C0.66 0 1.32 0 2 0 C1.25 4.75 1.25 4.75 -1 7 C-5.81989758 7.37076135 -9.51023509 6.75210338 -14 5 C-13.67 4.01 -13.34 3.02 -13 2 C-12.22914062 2.02320312 -11.45828125 2.04640625 -10.6640625 2.0703125 C-9.15972656 2.09738281 -9.15972656 2.09738281 -7.625 2.125 C-6.62726563 2.14820312 -5.62953125 2.17140625 -4.6015625 2.1953125 C-1.83737827 2.27216848 -1.83737827 2.27216848 0 0 Z " fill="#1B1512" transform="translate(105,120)"/>
<path d="M0 0 C0.33 0 0.66 0 1 0 C1.02725341 1.7290774 1.04650987 3.45828176 1.0625 5.1875 C1.07410156 6.15042969 1.08570313 7.11335937 1.09765625 8.10546875 C1.00486622 10.85576513 0.62111685 13.32479591 0 16 C1.65 16 3.3 16 5 16 C5 16.99 5 17.98 5 19 C6.32 19.33 7.64 19.66 9 20 C5.04 20 1.08 20 -3 20 C-3.33 18.68 -3.66 17.36 -4 16 C-3.34 16 -2.68 16 -2 16 C-1.7834375 14.2675 -1.7834375 14.2675 -1.5625 12.5 C-1.04166667 8.33333333 -0.52083333 4.16666667 0 0 Z " fill="#0997C7" transform="translate(169,160)"/>
<path d="M0 0 C1.65 0.33 3.3 0.66 5 1 C5.66 2.98 6.32 4.96 7 7 C3.37 7.33 -0.26 7.66 -4 8 C-4 4.09161134 -2.49432124 2.88405893 0 0 Z " fill="#3D3910" transform="translate(117,161)"/>
<path d="M0 0 C5.5090456 1.16537503 7.81095557 2.38138393 11 7 C11.639375 7.59941406 12.27875 8.19882813 12.9375 8.81640625 C15.24335939 11.25764754 16.43692972 13.50798593 17.8125 16.5625 C18.25207031 17.51253906 18.69164062 18.46257812 19.14453125 19.44140625 C20 22 20 22 19 25 C15.15384615 18.46153846 15.15384615 18.46153846 14.1875 15.5625 C11.20647838 9.12976913 5.94230148 4.62335456 0 1 C0 0.67 0 0.34 0 0 Z " fill="#278CAC" transform="translate(152,63)"/>
<path d="M0 0 C0.33 0 0.66 0 1 0 C1.04898437 1.21816406 1.09796875 2.43632813 1.1484375 3.69140625 C1.22352273 5.31512437 1.29906802 6.93882126 1.375 8.5625 C1.4059375 9.36236328 1.436875 10.16222656 1.46875 10.98632812 C1.82427387 18.2449405 3.52992588 24.34010516 6.625 30.9375 C7.07101563 31.89527344 7.51703125 32.85304687 7.9765625 33.83984375 C8.31429688 34.55269531 8.65203125 35.26554687 9 36 C8.34 36 7.68 36 7 36 C4.78252188 33.69723426 4.03239994 32.47519908 3.8125 29.25 C3.9053125 28.13625 3.9053125 28.13625 4 27 C2.68 26.67 1.36 26.34 0 26 C0 17.42 0 8.84 0 0 Z " fill="#218CAD" transform="translate(7,108)"/>
<path d="M0 0 C15.4791889 -0.7171825 15.4791889 -0.7171825 22 4 C23.9812585 4.72045764 25.97669589 5.40781343 28 6 C28 6.99 28 7.98 28 9 C23.94680455 7.71089198 20.12230746 6.19050405 16.25 4.4375 C10.79758666 2.12022433 5.90241794 1.14364291 0 1 C0 0.67 0 0.34 0 0 Z " fill="#2B91B9" transform="translate(124,54)"/>
<path d="M0 0 C0.99 0.33 1.98 0.66 3 1 C3 3.64 3 6.28 3 9 C2.01 9.495 2.01 9.495 1 10 C0.67 8.68 0.34 7.36 0 6 C-0.33 7.98 -0.66 9.96 -1 12 C-1.66 12 -2.32 12 -3 12 C-2.95875 13.11375 -2.9175 14.2275 -2.875 15.375 C-3 19 -3 19 -5 21 C-4.08300395 4.08300395 -4.08300395 4.08300395 0 0 Z " fill="#C7AAAA" transform="translate(77,11)"/>
<path d="M0 0 C1.78947815 2.68421723 2.73092143 4.81629723 3.8125 7.8125 C5.58529478 12.38162767 7.64301517 15.45651601 11 19 C8.1875 19.25 8.1875 19.25 5 19 C2.17584698 16.09438102 1.44587417 13.44099486 0.8125 9.5 C0.65394531 8.5615625 0.49539063 7.623125 0.33203125 6.65625 C0 4 0 4 0 0 Z " fill="#161E1A" transform="translate(14,130)"/>
<path d="M0 0 C3 1 3 1 5 4 C6.32 4 7.64 4 9 4 C9.12375 4.7425 9.2475 5.485 9.375 6.25 C9.95486701 8.80141485 10.73708739 10.7267573 12 13 C12.66 13 13.32 13 14 13 C14.66 14.32 15.32 15.64 16 17 C13 17 13 17 11.24609375 15.390625 C10.64925781 14.68421875 10.05242187 13.9778125 9.4375 13.25 C8.83808594 12.55390625 8.23867187 11.8578125 7.62109375 11.140625 C6 9 6 9 4.91796875 6.8125 C3.72660951 4.4601992 2.39740009 3.95896004 0 3 C0 2.01 0 1.02 0 0 Z " fill="#080601" transform="translate(75,163)"/>
<path d="M0 0 C2.64 0 5.28 0 8 0 C8 0.33 8 0.66 8 1 C14.27 1 20.54 1 27 1 C23.36997711 4.63002289 18.51155044 4.05557854 13.625 4.0625 C12.08327474 4.04658248 10.5415636 4.02741912 9 4 C8.67 4.99 8.34 5.98 8 7 C8 6.34 8 5.68 8 5 C7.34 5 6.68 5 6 5 C6 3.68 6 2.36 6 1 C4.02 1 2.04 1 0 1 C0 0.67 0 0.34 0 0 Z " fill="#312D15" transform="translate(117,157)"/>
<path d="M0 0 C0.66 0 1.32 0 2 0 C2 7.92 2 15.84 2 24 C1.01 24.33 0.02 24.66 -1 25 C-0.67 16.75 -0.34 8.5 0 0 Z " fill="#2985A7" transform="translate(67,26)"/>
<path d="M0 0 C4.29650214 4.44994865 8 11.66755699 8 18 C7.34 18 6.68 18 6 18 C6 17.34 6 16.68 6 16 C4.35 16 2.7 16 1 16 C1.99 15.67 2.98 15.34 4 15 C3.67 12.69 3.34 10.38 3 8 C1.68 8 0.36 8 -1 8 C-0.67 5.36 -0.34 2.72 0 0 Z " fill="#E1D9C3" transform="translate(162,80)"/>
<path d="M0 0 C2 1.3125 2 1.3125 4 3 C4 3.99 4 4.98 4 6 C6.64 6.33 9.28 6.66 12 7 C11.67 7.99 11.34 8.98 11 10 C3.67784643 10.36010591 3.67784643 10.36010591 1 8.9375 C-0.52690415 5.97912322 -0.18468872 3.26283401 0 0 Z " fill="#1D1912" transform="translate(86,123)"/>
<path d="M0 0 C1.65 0 3.3 0 5 0 C5 0.66 5 1.32 5 2 C8.3 2 11.6 2 15 2 C14.67 2.99 14.34 3.98 14 5 C12.22992286 5.08114106 10.45877902 5.13925505 8.6875 5.1875 C7.70136719 5.22230469 6.71523437 5.25710937 5.69921875 5.29296875 C3 5 3 5 1.14453125 3.61328125 C0 2 0 2 0 0 Z " fill="#03A3DD" transform="translate(121,48)"/>
<path d="M0 0 C-0.1103643 4.04220481 -0.24088006 8.08351915 -0.375 12.125 C-0.4059375 13.26710938 -0.436875 14.40921875 -0.46875 15.5859375 C-0.50742188 16.69453125 -0.54609375 17.803125 -0.5859375 18.9453125 C-0.6173584 19.96125488 -0.6487793 20.97719727 -0.68115234 22.02392578 C-1.02591445 25.24188142 -1.87550812 27.9737359 -3 31 C-3.33 31 -3.66 31 -4 31 C-4.125 25.25 -4.125 25.25 -3 23 C-2.90459888 21.50238238 -2.86926514 20.00065172 -2.8671875 18.5 C-2.86589844 17.613125 -2.86460938 16.72625 -2.86328125 15.8125 C-2.86714844 14.884375 -2.87101562 13.95625 -2.875 13 C-2.87113281 12.071875 -2.86726563 11.14375 -2.86328125 10.1875 C-2.86457031 9.300625 -2.86585937 8.41375 -2.8671875 7.5 C-2.86831543 6.6853125 -2.86944336 5.870625 -2.87060547 5.03125 C-2.87198497 2.93149048 -2.87198497 2.93149048 -4 1 C-2 0 -2 0 0 0 Z " fill="#FADEC7" transform="translate(86,7)"/>
<path d="M0 0 C6.6 0.33 13.2 0.66 20 1 C20 1.33 20 1.66 20 2 C15.545 2.495 15.545 2.495 11 3 C11.33 4.32 11.66 5.64 12 7 C11.01 7 10.02 7 9 7 C8.67 6.01 8.34 5.02 8 4 C6.16715557 2.87483915 6.16715557 2.87483915 4 2 C2.68 1.34 1.36 0.68 0 0 Z " fill="#2D2A22" transform="translate(64,156)"/>
<path d="M0 0 C0.99 0.33 1.98 0.66 3 1 C3.07418046 5.35990873 3.12861544 9.71948279 3.16479492 14.07983398 C3.17987768 15.56297199 3.20034689 17.04606544 3.22631836 18.52905273 C3.26272616 20.66140745 3.27973073 22.79317235 3.29296875 24.92578125 C3.3086792 26.20880127 3.32438965 27.49182129 3.34057617 28.8137207 C3 32 3 32 1.48168945 33.94213867 C0.99273193 34.29123291 0.50377441 34.64032715 0 35 C0.24339111 33.94135742 0.24339111 33.94135742 0.49169922 32.86132812 C1.01473626 29.91704659 1.12940546 27.20721392 1.1328125 24.21875 C1.13410156 23.12949219 1.13539063 22.04023437 1.13671875 20.91796875 C1.13285156 19.79003906 1.12898437 18.66210938 1.125 17.5 C1.12886719 16.37207031 1.13273438 15.24414062 1.13671875 14.08203125 C1.13542969 12.99277344 1.13414062 11.90351562 1.1328125 10.78125 C1.13168457 9.79189453 1.13055664 8.80253906 1.12939453 7.78320312 C1.00410608 5.08831948 0.60357957 2.62530139 0 0 Z " fill="#2598BE" transform="translate(174,96)"/>
<path d="M0 0 C0 0.33 0 0.66 0 1 C-0.73605469 1.09796875 -1.47210938 1.1959375 -2.23046875 1.296875 C-8.45615608 2.13111117 -8.45615608 2.13111117 -13.75 5.25 C-14.86375 6.11625 -14.86375 6.11625 -16 7 C-19.8125 6.25 -19.8125 6.25 -23 5 C-17.74918549 -0.25081451 -7.12094719 -0.41887925 0 0 Z " fill="#D2CBB2" transform="translate(73,54)"/>
<path d="M0 0 C0.33 0 0.66 0 1 0 C1.02578125 0.58007812 1.0515625 1.16015625 1.078125 1.7578125 C1.47346176 7.20267782 2.34938555 10.70515947 6 15 C6.99 15.33 7.98 15.66 9 16 C9 16.66 9 17.32 9 18 C7.02 18 5.04 18 3 18 C-0.81636773 12.27544841 -0.29282789 6.70250505 0 0 Z " fill="#248DB2" transform="translate(19,162)"/>
<path d="M0 0 C0.33 0.99 0.66 1.98 1 3 C-2.01887244 6.48331435 -4.56909529 7.79157144 -9 9 C-9.99 8.01 -10.98 7.02 -12 6 C-8.04 4.02 -4.08 2.04 0 0 Z " fill="#16100B" transform="translate(161,146)"/>
<path d="M0 0 C7.42857143 -0.28571429 7.42857143 -0.28571429 11 2 C9.7181368 4.5637264 8.44099602 5.50828021 6 7 C3.25 7.1875 3.25 7.1875 1 7 C1 6.01 1 5.02 1 4 C1.99 3.34 2.98 2.68 4 2 C2.68 1.34 1.36 0.68 0 0 Z " fill="#363728" transform="translate(67,96)"/>
<path d="M0 0 C0 1.32 0 2.64 0 4 C-6.435 4.495 -6.435 4.495 -13 5 C-12 2 -12 2 -9.875 0.8125 C-6.48581699 -0.14531259 -3.50528139 -0.13746202 0 0 Z " fill="#140D07" transform="translate(73,64)"/>
<path d="M0 0 C0.99 0.33 1.98 0.66 3 1 C2.67 4.3 2.34 7.6 2 11 C1.01 11.33 0.02 11.66 -1 12 C-1 10.68 -1 9.36 -1 8 C-1.66 8 -2.32 8 -3 8 C-2.45276317 4.62537285 -1.9451 2.91765 0 0 Z " fill="#E4C9C0" transform="translate(81,4)"/>
<path d="M0 0 C3.28172302 0.56581431 4.95252646 1.34758287 7 4 C7.34057617 6.4519043 7.34057617 6.4519043 7.29296875 9.32421875 C7.28330078 10.35224609 7.27363281 11.38027344 7.26367188 12.43945312 C7.23853516 13.51130859 7.21339844 14.58316406 7.1875 15.6875 C7.17396484 16.77095703 7.16042969 17.85441406 7.14648438 18.97070312 C7.11110643 21.64763405 7.06174189 24.32356838 7 27 C6.67 27 6.34 27 6 27 C6 20.73 6 14.46 6 8 C5.34 8 4.68 8 4 8 C2.66666667 5.33333333 1.33333333 2.66666667 0 0 Z " fill="#2296C0" transform="translate(116,0)"/>
<path d="M0 0 C0.99 0.33 1.98 0.66 3 1 C1.66666667 3.66666667 0.33333333 6.33333333 -1 9 C-1.66 9 -2.32 9 -3 9 C-3 8.34 -3 7.68 -3 7 C-4.32 6.67 -5.64 6.34 -7 6 C-6.67 4.68 -6.34 3.36 -6 2 C-4.35 2 -2.7 2 -1 2 C-0.67 1.34 -0.34 0.68 0 0 Z " fill="#070E0F" transform="translate(31,171)"/>
<path d="M0 0 C0.66 0 1.32 0 2 0 C1.67 6.93 1.34 13.86 1 21 C-1.50506123 17.24240815 -1.2604463 14.27972423 -1.1875 9.9375 C-1.18685547 9.20466797 -1.18621094 8.47183594 -1.18554688 7.71679688 C-1.140625 2.28125 -1.140625 2.28125 0 0 Z " fill="#040807" transform="translate(10,101)"/>
<path d="M0 0 C3.96 0 7.92 0 12 0 C11.01 1.98 10.02 3.96 9 6 C4.69127714 4.56375905 3.45397435 3.45397435 0 0 Z " fill="#EDEFEE" transform="translate(98,161)"/>
<path d="M0 0 C1.093125 0.0825 2.18625 0.165 3.3125 0.25 C2.2296875 0.9925 2.2296875 0.9925 1.125 1.75 C-2.34638511 4.83567566 -4.4038468 8.24631864 -6.6875 12.25 C-7.3475 11.26 -8.0075 10.27 -8.6875 9.25 C-8.0275 9.25 -7.3675 9.25 -6.6875 9.25 C-6.749375 8.5075 -6.81125 7.765 -6.875 7 C-6.6875 4.25 -6.6875 4.25 -5.625 1.9375 C-3.6875 0.25 -3.6875 0.25 0 0 Z " fill="#131419" transform="translate(83.6875,-0.25)"/>
<path d="M0 0 C-3.67832102 4.0655127 -7.56866979 6.22409568 -13 7 C-12.875 5.1875 -12.875 5.1875 -12 3 C-7.91068936 0.33719307 -4.83960066 -0.34568576 0 0 Z " fill="#0D171A" transform="translate(49,58)"/>
<path d="M0 0 C0.33 0 0.66 0 1 0 C1.06058594 0.59167969 1.12117188 1.18335938 1.18359375 1.79296875 C1.70727506 6.80245864 1.70727506 6.80245864 2.625 11.75 C3.06785887 14.40715323 2.66628867 16.4088774 2 19 C1.01 19 0.02 19 -1 19 C-0.67 12.73 -0.34 6.46 0 0 Z " fill="#16201C" transform="translate(116,34)"/>
<path d="M0 0 C0.66 0.33 1.32 0.66 2 1 C0.57455646 3.1755197 -0.86414548 5.33981854 -2.3125 7.5 C-2.71662109 8.12003906 -3.12074219 8.74007812 -3.53710938 9.37890625 C-4.61492467 10.97372238 -5.80183832 12.4935031 -7 14 C-7.99 14 -8.98 14 -10 14 C-9.34 12.35 -8.68 10.7 -8 9 C-7.34 9 -6.68 9 -6 9 C-5.566875 8.13375 -5.566875 8.13375 -5.125 7.25 C-4.568125 6.13625 -4.568125 6.13625 -4 5 C-3.67 4.278125 -3.34 3.55625 -3 2.8125 C-2 1 -2 1 0 0 Z " fill="#110902" transform="translate(107,166)"/>
<path d="M0 0 C2.75 0.8125 2.75 0.8125 5 2 C4.34 3.65 3.68 5.3 3 7 C0.625 6.6875 0.625 6.6875 -2 6 C-2.66 5.01 -3.32 4.02 -4 3 C-2.3125 1.375 -2.3125 1.375 0 0 Z " fill="#7D201F" transform="translate(93,162)"/>
<path d="M0 0 C0.99 0.33 1.98 0.66 3 1 C3.33 3.64 3.66 6.28 4 9 C2.68 9 1.36 9 0 9 C0 8.34 0 7.68 0 7 C-0.66 7 -1.32 7 -2 7 C-1.125 1.125 -1.125 1.125 0 0 Z " fill="#403509" transform="translate(27,155)"/>
<path d="M0 0 C0.79921875 0.00644531 1.5984375 0.01289063 2.421875 0.01953125 C3.246875 0.03628906 4.071875 0.05304688 4.921875 0.0703125 C5.76234375 0.07933594 6.6028125 0.08835938 7.46875 0.09765625 C9.53658104 0.12115433 11.60426495 0.15702342 13.671875 0.1953125 C10.24022638 2.48307824 8.42368256 2.59685776 4.359375 2.8828125 C2.69455078 3.01236328 2.69455078 3.01236328 0.99609375 3.14453125 C-2.25588422 3.19420894 -5.14643047 2.83550217 -8.328125 2.1953125 C-5.40988256 0.52856929 -3.35218121 -0.0478883 0 0 Z " fill="#E5E2BD" transform="translate(50.328125,151.8046875)"/>
<path d="M0 0 C0.41176754 3.60296594 0.1535853 4.78402067 -2 7.8125 C-2.66 8.534375 -3.32 9.25625 -4 10 C-4.99 9.67 -5.98 9.34 -7 9 C-4.4 0 -4.4 0 0 0 Z " fill="#341C19" transform="translate(131,112)"/>
<path d="M0 0 C0.33 0 0.66 0 1 0 C1.13277344 0.67546875 1.26554687 1.3509375 1.40234375 2.046875 C1.57894531 2.93890625 1.75554687 3.8309375 1.9375 4.75 C2.19853516 6.07257812 2.19853516 6.07257812 2.46484375 7.421875 C2.92368488 9.63235053 3.43336074 11.81512068 4 14 C2.68 14 1.36 14 0 14 C-0.33 15.32 -0.66 16.64 -1 18 C-1.33 15.03 -1.66 12.06 -2 9 C-1.67 9 -1.34 9 -1 9 C-0.67 6.03 -0.34 3.06 0 0 Z " fill="#F1C3C2" transform="translate(74,36)"/>
<path d="M0 0 C2.55694972 3.83542457 2.04045639 5.65902533 1.625 10.1875 C1.45871094 12.09595703 1.45871094 12.09595703 1.2890625 14.04296875 C1.19367188 15.01878906 1.09828125 15.99460937 1 17 C-0.76462683 13.91190305 -1 12.76687864 -1 9 C-1.99 9 -2.98 9 -4 9 C-4 8.34 -4 7.68 -4 7 C-3.01 6.34 -2.02 5.68 -1 5 C-0.27034634 2.43717258 -0.27034634 2.43717258 0 0 Z " fill="#F1EED3" transform="translate(114,7)"/>
<path d="M0 0 C1.65 1.65 3.3 3.3 5 5 C4.67 5.99 4.34 6.98 4 8 C1.69 7.67 -0.62 7.34 -3 7 C-3 5.02 -3 3.04 -3 1 C-2.01 0.67 -1.02 0.34 0 0 Z " fill="#3D3706" transform="translate(75,167)"/>
<path d="M0 0 C0.33 0.66 0.66 1.32 1 2 C3.02463255 2.65213292 3.02463255 2.65213292 5 3 C4.01 3.33 3.02 3.66 2 4 C0.31461399 5.99665314 0.31461399 5.99665314 -1 8 C-1.99 7.67 -2.98 7.34 -4 7 C-3.34 6.01 -2.68 5.02 -2 4 C-5.96 4 -9.92 4 -14 4 C-14 3.34 -14 2.68 -14 2 C-13.07316406 1.93941406 -12.14632812 1.87882813 -11.19140625 1.81640625 C-9.39509766 1.69072266 -9.39509766 1.69072266 -7.5625 1.5625 C-5.77005859 1.44068359 -5.77005859 1.44068359 -3.94140625 1.31640625 C-1.11429756 1.32343886 -1.11429756 1.32343886 0 0 Z " fill="#2A2A24" transform="translate(111,158)"/>
<path d="M0 0 C2.01822917 0.06510417 4.03645833 0.13020833 6.0546875 0.1953125 C5.2503125 0.8140625 4.4459375 1.4328125 3.6171875 2.0703125 C1.01594231 3.93695291 1.01594231 3.93695291 0.0546875 6.1953125 C-0.6053125 6.1953125 -1.2653125 6.1953125 -1.9453125 6.1953125 C-2.2753125 7.1853125 -2.6053125 8.1753125 -2.9453125 9.1953125 C-3.5703125 5.8203125 -3.5703125 5.8203125 -3.9453125 2.1953125 C-1.9453125 0.1953125 -1.9453125 0.1953125 0 0 Z " fill="#14140B" transform="translate(66.9453125,96.8046875)"/>
<path d="M0 0 C2.31 0 4.62 0 7 0 C6.67 1.32 6.34 2.64 6 4 C5.443125 4.12375 4.88625 4.2475 4.3125 4.375 C1.91529254 4.96120306 1.91529254 4.96120306 -0.5625 6.125 C-3 7 -3 7 -6 6 C-5.38125 5.7525 -4.7625 5.505 -4.125 5.25 C-1.64931313 3.79371361 -1.04874998 2.62187494 0 0 Z " fill="#F7EFD0" transform="translate(125,59)"/>
<path d="M0 0 C2.64 0 5.28 0 8 0 C7.67 1.65 7.34 3.3 7 5 C5.68 5.33 4.36 5.66 3 6 C0 2.25 0 2.25 0 0 Z " fill="#BBB7B1" transform="translate(24,168)"/>
<path d="M0 0 C0.33 1.65 0.66 3.3 1 5 C-2.19902639 5.08886184 -4.92677456 4.91058531 -8 4 C-8.66 4.99 -9.32 5.98 -10 7 C-9.625 4.0625 -9.625 4.0625 -9 1 C-6.04335481 -0.4783226 -3.25770263 -0.06032783 0 0 Z " fill="#F4EEDB" transform="translate(89,117)"/>
<path d="M0 0 C0.33 0 0.66 0 1 0 C1.33 6.6 1.66 13.2 2 20 C2.66 20.33 3.32 20.66 4 21 C2.35 20.67 0.7 20.34 -1 20 C-2.25180279 15.78080897 -1.67252421 12.03911435 -1.0625 7.75 C-0.96259766 7.00492188 -0.86269531 6.25984375 -0.75976562 5.4921875 C-0.51319844 3.66054558 -0.25749609 1.83013749 0 0 Z " fill="#2D98B7" transform="translate(120,32)"/>
<path d="M0 0 C0.33 0 0.66 0 1 0 C0.85816304 1.75032844 0.71136571 3.50025534 0.5625 5.25 C0.48128906 6.22453125 0.40007812 7.1990625 0.31640625 8.203125 C0.04925416 10.56461753 -0.35371968 12.71901065 -1 15 C-2.98 15 -4.96 15 -7 15 C-6.66226563 14.50371094 -6.32453125 14.00742188 -5.9765625 13.49609375 C-3.05398512 9.04465363 -1.18978233 5.19177746 0 0 Z " fill="#1F86A4" transform="translate(167,165)"/>
<path d="M0 0 C0.8971875 0.309375 0.8971875 0.309375 1.8125 0.625 C0.3275 2.11 0.3275 2.11 -1.1875 3.625 C1.2875 5.605 1.2875 5.605 3.8125 7.625 C1.8325 7.625 -0.1475 7.625 -2.1875 7.625 C-2.5175 6.635 -2.8475 5.645 -3.1875 4.625 C-5.1675 5.615 -5.1675 5.615 -7.1875 6.625 C-4.6484375 -0.796875 -4.6484375 -0.796875 0 0 Z " fill="#2A100F" transform="translate(91.1875,162.375)"/>
<path d="M0 0 C1.32 0 2.64 0 4 0 C2.60306939 4.88925715 0.06012438 7.05441957 -4 10 C-6.6875 11.4375 -6.6875 11.4375 -9 12 C-9.99 11.34 -10.98 10.68 -12 10 C-11.07767578 9.74476563 -11.07767578 9.74476563 -10.13671875 9.484375 C-5.09986362 8.03300513 -5.09986362 8.03300513 -0.9375 5 C0.21221694 2.91540797 0.21221694 2.91540797 0 0 Z " fill="#F5F1DC" transform="translate(162,139)"/>
<path d="M0 0 C0.33 1.32 0.66 2.64 1 4 C1.99 3.34 2.98 2.68 4 2 C4 4.31 4 6.62 4 9 C1.35261084 10.4606285 0.10551666 11 -3 11 C-2.67 10.67 -2.34 10.34 -2 10 C-1.79300437 8.50503158 -1.63320741 7.0033408 -1.5 5.5 C-1.11111111 1.11111111 -1.11111111 1.11111111 0 0 Z " fill="#D7D4BA" transform="translate(122,99)"/>
<path d="M0 0 C0.33 0 0.66 0 1 0 C1.33 7.26 1.66 14.52 2 22 C0.02 22 -1.96 22 -4 22 C-3.67 21.34 -3.34 20.68 -3 20 C-2.34 20 -1.68 20 -1 20 C-0.67 13.4 -0.34 6.8 0 0 Z " fill="#372A29" transform="translate(71,32)"/>
<path d="M0 0 C0.33 0 0.66 0 1 0 C0.979375 0.94875 0.95875 1.8975 0.9375 2.875 C0.77448174 5.90666283 0.77448174 5.90666283 2 8 C1.72057545 9.67654729 1.39171753 11.34608154 1 13 C-0.32 13.33 -1.64 13.66 -3 14 C-2.88512252 12.41590006 -2.75765492 10.83271037 -2.625 9.25 C-2.55539063 8.36828125 -2.48578125 7.4865625 -2.4140625 6.578125 C-2.00149945 4.00933618 -1.28839043 2.24158985 0 0 Z " fill="#D5AFB6" transform="translate(101,12)"/>
<path d="M0 0 C0.99 0 1.98 0 3 0 C2.75 3.375 2.75 3.375 2 7 C-0.0625 8.4375 -0.0625 8.4375 -2 9 C-2.125 5.625 -2.125 5.625 -2 2 C-1.34 1.34 -0.68 0.68 0 0 Z " fill="#402525" transform="translate(145,114)"/>
<path d="M0 0 C-8.20689655 7 -8.20689655 7 -13 7 C-13 7.66 -13 8.32 -13 9 C-13.99 9.33 -14.98 9.66 -16 10 C-16 9.01 -16 8.02 -16 7 C-15.34 7 -14.68 7 -14 7 C-14 6.34 -14 5.68 -14 5 C-12.02 4.34 -10.04 3.68 -8 3 C-8 2.34 -8 1.68 -8 1 C-5.07175348 0.02391783 -3.04386724 -0.08226668 0 0 Z " fill="#279BBF" transform="translate(50,54)"/>
<path d="M0 0 C1.32 0.66 2.64 1.32 4 2 C4 5 4 5 2.8125 6.75 C1 8 1 8 -1.6875 7.6875 C-2.450625 7.460625 -3.21375 7.23375 -4 7 C-4 4 -4 4 -2 1.8125 C-1.34 1.214375 -0.68 0.61625 0 0 Z " fill="#E7C4BD" transform="translate(59,118)"/>
<path d="M0 0 C3.04386724 -0.08226668 5.07175348 0.02391783 8 1 C8.33 4.63 8.66 8.26 9 12 C7 8 7 8 7 4 C6.67 4.66 6.34 5.32 6 6 C5.34 6 4.68 6 4 6 C4 5.01 4 4.02 4 3 C2.68 2.67 1.36 2.34 0 2 C0 1.34 0 0.68 0 0 Z " fill="#F6F0D7" transform="translate(82,4)"/>
<path d="M0 0 C2.125 4.625 2.125 4.625 1 8 C-1.62187494 6.95125002 -2.79371361 6.35068687 -4.25 3.875 C-4.4975 3.25625 -4.745 2.6375 -5 2 C-2 0 -2 0 0 0 Z " fill="#E2E3E3" transform="translate(88,167)"/>
<path d="M0 0 C0.99 0 1.98 0 3 0 C2.01 2.97 1.02 5.94 0 9 C-0.99 9 -1.98 9 -3 9 C-2.5020163 5.26512223 -2.12508244 3.18762365 0 0 Z " fill="#391D1E" transform="translate(42,112)"/>
<path d="M0 0 C1.32 0.66 2.64 1.32 4 2 C3.75 3.875 3.75 3.875 3 6 C0.9375 7.25 0.9375 7.25 -1 8 C-1.625 5.125 -1.625 5.125 -2 2 C-1.34 1.34 -0.68 0.68 0 0 Z " fill="#E7E5E3" transform="translate(100,166)"/>
<path d="M0 0 C1.32 0 2.64 0 4 0 C3.37240135 2.92879371 2.41377341 5.36095629 1 8 C0.01 8 -0.98 8 -2 8 C-1.125 2.25 -1.125 2.25 0 0 Z " fill="#351518" transform="translate(49,113)"/>
<path d="M0 0 C-0.75 4.75 -0.75 4.75 -3 7 C-4.32 7 -5.64 7 -7 7 C-6.22006468 2.47637516 -4.81844319 0 0 0 Z " fill="#35181C" transform="translate(140,114)"/>
<path d="M0 0 C1.32 0.33 2.64 0.66 4 1 C3.34 2.65 2.68 4.3 2 6 C1.01 6 0.02 6 -1 6 C-1 6.99 -1 7.98 -1 9 C-2.65 9 -4.3 9 -6 9 C-6 8.34 -6 7.68 -6 7 C-4.515 6.0409375 -4.515 6.0409375 -3 5.0625 C-2.01 4.381875 -1.02 3.70125 0 3 C0 2.01 0 1.02 0 0 Z " fill="#F8EDD5" transform="translate(125,104)"/>
<path d="M0 0 C0.78375 0.04125 1.5675 0.0825 2.375 0.125 C2.375 1.115 2.375 2.105 2.375 3.125 C0.725 3.785 -0.925 4.445 -2.625 5.125 C-2.625 5.785 -2.625 6.445 -2.625 7.125 C-3.285 7.125 -3.945 7.125 -4.625 7.125 C-4.75 4.75 -4.75 4.75 -4.625 2.125 C-2.625 0.125 -2.625 0.125 0 0 Z " fill="#EBE7DC" transform="translate(110.625,2.875)"/>
<path d="M0 0 C0.66 0.33 1.32 0.66 2 1 C2 2.98 2 4.96 2 7 C0.02 7 -1.96 7 -4 7 C-4.33 5.35 -4.66 3.7 -5 2 C-3.68 1.67 -2.36 1.34 -1 1 C-1 1.99 -1 2.98 -1 4 C-0.67 2.68 -0.34 1.36 0 0 Z " fill="#3D3703" transform="translate(162,155)"/>
<path d="M0 0 C3.63 0 7.26 0 11 0 C11.33 2.31 11.66 4.62 12 7 C10.5 5.625 10.5 5.625 9 4 C9 3.34 9 2.68 9 2 C6.03 2 3.06 2 0 2 C0 1.34 0 0.68 0 0 Z " fill="#070200" transform="translate(112,158)"/>
<path d="M0 0 C0.33 1.32 0.66 2.64 1 4 C0.34 4 -0.32 4 -1 4 C-1.144375 5.051875 -1.28875 6.10375 -1.4375 7.1875 C-1.87526966 10.15460549 -2.37804866 13.06794366 -3 16 C-3.66 16 -4.32 16 -5 16 C-5.33 16.66 -5.66 17.32 -6 18 C-5.32739631 11.61026495 -2.85677683 5.71355366 0 0 Z " fill="#042C41" transform="translate(15,85)"/>
<path d="M0 0 C-2.64 3.63 -5.28 7.26 -8 11 C-9 8 -9 8 -7.8125 4.4375 C-6 1 -6 1 -3.9375 -0.5 C-2 -1 -2 -1 0 0 Z " fill="#120C0A" transform="translate(31,71)"/>
<path d="M0 0 C0.66 0.33 1.32 0.66 2 1 C-0.63675566 3.91926519 -2.23460384 5.09111127 -6 6 C-6.33 6.99 -6.66 7.98 -7 9 C-8.65 9 -10.3 9 -12 9 C-8.33494586 5.00175912 -4.88887148 2.39831431 0 0 Z " fill="#D7D7B9" transform="translate(48,59)"/>
<path d="M0 0 C1 3 1 3 -0.21484375 5.48046875 C-0.78332031 6.37378906 -1.35179688 7.26710938 -1.9375 8.1875 C-2.50339844 9.08855469 -3.06929688 9.98960938 -3.65234375 10.91796875 C-4.09707031 11.60503906 -4.54179688 12.29210938 -5 13 C-5.99 12.67 -6.98 12.34 -8 12 C-8 11.34 -8 10.68 -8 10 C-7.34 9.67 -6.68 9.34 -6 9 C-5.896875 8.4225 -5.79375 7.845 -5.6875 7.25 C-4.68370772 3.96486163 -2.48026672 2.28947698 0 0 Z " fill="#120A06" transform="translate(105,3)"/>
<path d="M0 0 C0.66 0.99 1.32 1.98 2 3 C1.67 3.99 1.34 4.98 1 6 C1.66 6 2.32 6 3 6 C3 6.66 3 7.32 3 8 C1.35 8.66 -0.3 9.32 -2 10 C-3.39195915 5.82412255 -1.82323219 3.86525224 0 0 Z " fill="#DDD9BF" transform="translate(20,84)"/>
<path d="M0 0 C1.4606285 2.64738916 2 3.89448334 2 7 C1.34 7 0.68 7 0 7 C-0.33 7.66 -0.66 8.32 -1 9 C-1.2475 8.05125 -1.495 7.1025 -1.75 6.125 C-2.6857077 2.91306809 -2.6857077 2.91306809 -5.125 1.625 C-5.74375 1.41875 -6.3625 1.2125 -7 1 C-4.53721199 -0.231394 -2.7204945 -0.07159196 0 0 Z " fill="#181E21" transform="translate(92,0)"/>
<path d="M0 0 C0.99 0.66 1.98 1.32 3 2 C3.1875 5.125 3.1875 5.125 3 8 C2.34 8 1.68 8 1 8 C0.67 8.66 0.34 9.32 0 10 C-1.32 9.67 -2.64 9.34 -4 9 C-4 8.34 -4 7.68 -4 7 C-2.68 6.34 -1.36 5.68 0 5 C0 3.35 0 1.7 0 0 Z " fill="#05A3D6" transform="translate(4,126)"/>
<path d="M0 0 C0 0.66 0 1.32 0 2 C-2.31 2.66 -4.62 3.32 -7 4 C-7.66 2.68 -8.32 1.36 -9 0 C-5.93109813 -1.53445094 -3.29905734 -0.54984289 0 0 Z " fill="#E6E3D6" transform="translate(97,126)"/>
<path d="M0 0 C2.475 0.495 2.475 0.495 5 1 C4.773125 1.763125 4.54625 2.52625 4.3125 3.3125 C4.209375 4.199375 4.10625 5.08625 4 6 C5.33378575 7.8354799 5.33378575 7.8354799 7 9 C5.68 9.33 4.36 9.66 3 10 C2.49596232 8.70990357 1.99690074 7.41786211 1.5 6.125 C1.2215625 5.40570313 0.943125 4.68640625 0.65625 3.9453125 C0 2 0 2 0 0 Z " fill="#DCC9B7" transform="translate(121,115)"/>
<path d="M0 0 C2.31 0.33 4.62 0.66 7 1 C6.34 3.31 5.68 5.62 5 8 C3.68 8 2.36 8 1 8 C1.375 6.0625 1.375 6.0625 2 4 C2.66 3.67 3.32 3.34 4 3 C4 2.34 4 1.68 4 1 C2.68 0.67 1.36 0.34 0 0 Z " fill="#867E7E" transform="translate(110,96)"/>
<path d="M0 0 C1 2 1 2 0.22265625 4.3828125 C-0.16019531 5.28773437 -0.54304688 6.19265625 -0.9375 7.125 C-1.31777344 8.03507812 -1.69804687 8.94515625 -2.08984375 9.8828125 C-2.54037109 10.93082031 -2.54037109 10.93082031 -3 12 C-4.32 11.34 -5.64 10.68 -7 10 C-3.535 5.05 -3.535 5.05 0 0 Z " fill="#06202B" transform="translate(24,72)"/>
<path d="M0 0 C1.60568666 0.28317926 3.20952047 0.57687791 4.8125 0.875 C6.15248047 1.11863281 6.15248047 1.11863281 7.51953125 1.3671875 C10 2 10 2 13 4 C9.04 4 5.08 4 1 4 C1.33 3.01 1.66 2.02 2 1 C1.34 0.67 0.68 0.34 0 0 Z " fill="#3A3216" transform="translate(65,176)"/>
<path d="M0 0 C1.98 0 3.96 0 6 0 C5.49396008 2.16874252 5.00016187 3.99967627 4 6 C2.68 5.34 1.36 4.68 0 4 C0 2.68 0 1.36 0 0 Z " fill="#DEDFD2" transform="translate(156,169)"/>
<path d="M0 0 C0 0.99 0 1.98 0 3 C-0.66 3 -1.32 3 -2 3 C-2.66 4.32 -3.32 5.64 -4 7 C-4.99 6.67 -5.98 6.34 -7 6 C-7 4.68 -7 3.36 -7 2 C-4.35261084 0.5393715 -3.10551666 0 0 0 Z " fill="#E9CFC3" transform="translate(131,108)"/>
<path d="M0 0 C0 0.66 0 1.32 0 2 C-0.99 2 -1.98 2 -3 2 C-3.33 2.99 -3.66 3.98 -4 5 C-5.65 4.67 -7.3 4.34 -9 4 C-9 3.01 -9 2.02 -9 1 C-5.92677456 0.08941469 -3.19902639 -0.08886184 0 0 Z " fill="#3C3433" transform="translate(116,107)"/>
<path d="M0 0 C0 0.99 0 1.98 0 3 C-1.32 3.33 -2.64 3.66 -4 4 C-4 5.98 -4 7.96 -4 10 C-4.33 9.34 -4.66 8.68 -5 8 C-5.99 8.99 -6.98 9.98 -8 11 C-8.66 10.67 -9.32 10.34 -10 10 C-9.09373216 8.7010161 -8.17450463 7.41106833 -7.25 6.125 C-6.73953125 5.40570313 -6.2290625 4.68640625 -5.703125 3.9453125 C-3.92496453 1.91429435 -2.47298393 1.02144988 0 0 Z " fill="#CBC8B2" transform="translate(35,68)"/>
<path d="M0 0 C0.33 0 0.66 0 1 0 C1.34548714 6.33393082 0.29342747 11.10261508 -2 17 C-2.33 17 -2.66 17 -3 17 C-3.19953041 12.71009608 -2.66617076 9.92040178 -1 6 C-0.62406934 4.0075675 -0.28020455 2.0081326 0 0 Z " fill="#EED0C2" transform="translate(81,32)"/>
<path d="M0 0 C2.875 -0.125 2.875 -0.125 6 0 C8.39763185 2.39763185 8.34280586 3.33273498 8.625 6.625 C8.69976562 7.44226563 8.77453125 8.25953125 8.8515625 9.1015625 C8.92503906 10.04128906 8.92503906 10.04128906 9 11 C6.8480563 7.77208445 6.79913557 6.71599191 7 3 C6.01 3.33 5.02 3.66 4 4 C4 3.34 4 2.68 4 2 C2.35 2 0.7 2 -1 2 C-0.67 1.34 -0.34 0.68 0 0 Z " fill="#C3BAAB" transform="translate(83,2)"/>
<path d="M0 0 C1.07511952 3.66449188 0.69247635 4.61504731 -1 8 C-1.47125235 10.66360025 -1.73049325 13.30493254 -2 16 C-3.76462683 12.91190305 -4 11.76687864 -4 8 C-3.125 5.859375 -3.125 5.859375 -2 3.75 C-1.62875 3.04359375 -1.2575 2.3371875 -0.875 1.609375 C-0.58625 1.07828125 -0.2975 0.5471875 0 0 Z " fill="#2B81A7" transform="translate(170,140)"/>
<path d="M0 0 C0.99 0 1.98 0 3 0 C4.42944945 2.35438733 5.08661261 3.48032433 4.625 6.25 C4.41875 6.8275 4.2125 7.405 4 8 C3.01 8 2.02 8 1 8 C0.67 5.36 0.34 2.72 0 0 Z " fill="#211A11" transform="translate(136,89)"/>
<path d="M0 0 C1.32 0 2.64 0 4 0 C3.11223998 3.69900008 2.05418136 7.34550461 1 11 C-0.98362069 8.08291076 -0.9876191 6.87619096 -0.625 3.25 C-0.41875 2.1775 -0.2125 1.105 0 0 Z " fill="#161D1E" transform="translate(16,83)"/>
<path d="M0 0 C0.99 0 1.98 0 3 0 C3.33 1.98 3.66 3.96 4 6 C2.02 6 0.04 6 -2 6 C-1.34 4.02 -0.68 2.04 0 0 Z " fill="#9B0E0F" transform="translate(93,174)"/>
<path d="M0 0 C0.99 1.32 1.98 2.64 3 4 C2.01 4.495 2.01 4.495 1 5 C1 5.66 1 6.32 1 7 C-0.134375 7.12375 -1.26875 7.2475 -2.4375 7.375 C-4.2009375 7.684375 -4.2009375 7.684375 -6 8 C-6.33 8.66 -6.66 9.32 -7 10 C-7.66 9.67 -8.32 9.34 -9 9 C-9 8.01 -9 7.02 -9 6 C-6.03 6 -3.06 6 0 6 C-0.33 5.01 -0.66 4.02 -1 3 C-0.67 2.01 -0.34 1.02 0 0 Z " fill="#181302" transform="translate(124,162)"/>
<path d="M0 0 C0.99 1.32 1.98 2.64 3 4 C1.71034824 5.37562854 0.37310707 6.70766393 -1 8 C-1.66 8 -2.32 8 -3 8 C-1.125 1.125 -1.125 1.125 0 0 Z " fill="#D7D2B8" transform="translate(55,75)"/>
<path d="M0 0 C0.99 0 1.98 0 3 0 C1.4169423 4.2742558 -1.50568404 6.26531794 -5 9 C-5 6 -5 6 -4 4 C-3.34 4 -2.68 4 -2 4 C-2 3.34 -2 2.68 -2 2 C-1.34 2 -0.68 2 0 2 C0 1.34 0 0.68 0 0 Z " fill="#269FBE" transform="translate(30,63)"/>
<path d="M0 0 C0.33 0.99 0.66 1.98 1 3 C-1.22592999 6.38011591 -3.21282653 8.51218185 -7 10 C-5.6062718 5.56541027 -3.39417765 3.12621626 0 0 Z " fill="#05222D" transform="translate(105,0)"/>
<path d="M0 0 C0.99 0.33 1.98 0.66 3 1 C3 1.99 3 2.98 3 4 C0.03 4.66 -2.94 5.32 -6 6 C-6 5.34 -6 4.68 -6 4 C-4.68 4 -3.36 4 -2 4 C-1.34 2.68 -0.68 1.36 0 0 Z " fill="#E7E3CA" transform="translate(149,148)"/>
<path d="M0 0 C3.465 1.485 3.465 1.485 7 3 C5.68 3.33 4.36 3.66 3 4 C2.67 5.32 2.34 6.64 2 8 C1.34 8 0.68 8 0 8 C0.33 6.35 0.66 4.7 1 3 C-0.32 2.67 -1.64 2.34 -3 2 C-2.01 2 -1.02 2 0 2 C0 1.34 0 0.68 0 0 Z " fill="#E4B6BE" transform="translate(46,109)"/>
<path d="M0 0 C2.0625 1.6875 2.0625 1.6875 4 4 C3.75 6.75 3.75 6.75 3 9 C2.34 9 1.68 9 1 9 C-1.09230769 4.56923077 -1.09230769 4.56923077 -0.625 1.6875 C-0.41875 1.130625 -0.2125 0.57375 0 0 Z " fill="#F1E5CE" transform="translate(154,70)"/>
<path d="M0 0 C0.33 0.66 0.66 1.32 1 2 C1.66 2.33 2.32 2.66 3 3 C2.34 3.66 1.68 4.32 1 5 C0.29875 4.525625 -0.4025 4.05125 -1.125 3.5625 C-4.16081337 1.91260143 -6.59168786 1.39631536 -10 1 C-6.44020218 -1.32756011 -4.04793886 -1.07945036 0 0 Z " fill="#D1CDB3" transform="translate(128,66)"/>
<path d="M0 0 C0.66 0 1.32 0 2 0 C2.33 0.99 2.66 1.98 3 3 C4.29355827 4.37195574 5.62298702 5.71182656 7 7 C6.67 7.99 6.34 8.98 6 10 C5.34 10 4.68 10 4 10 C3.32845067 8.71086513 2.66291141 7.41859796 2 6.125 C1.62875 5.40570312 1.2575 4.68640625 0.875 3.9453125 C0 2 0 2 0 0 Z " fill="#2F8EB1" transform="translate(92,0)"/>
<path d="M0 0 C2.56957396 1.80703206 4.9456142 3.61217986 7 6 C6.9375 9.375 6.9375 9.375 6 12 C5.67 12 5.34 12 5 12 C4.87625 11.195625 4.7525 10.39125 4.625 9.5625 C4.41875 8.716875 4.2125 7.87125 4 7 C3.34 6.67 2.68 6.34 2 6 C2 5.34 2 4.68 2 4 C1.34 4 0.68 4 0 4 C0 2.68 0 1.36 0 0 Z " fill="#388EAD" transform="translate(16,145)"/>
<path d="M0 0 C0.33 0.99 0.66 1.98 1 3 C1.99 2.67 2.98 2.34 4 2 C5.15941038 5.47823115 4.70820884 7.45895578 4 11 C1.22157405 8.22157405 0.05528792 6.21633419 -0.125 2.25 C-0.063125 1.13625 -0.063125 1.13625 0 0 Z " fill="#DDD9BE" transform="translate(16,132)"/>
<path d="M0 0 C0.99 0.33 1.98 0.66 3 1 C3 2.98 3 4.96 3 7 C2.01 7.33 1.02 7.66 0 8 C-0.38063221 5.6739143 -0.71269945 3.33944736 -1 1 C-0.67 0.67 -0.34 0.34 0 0 Z " fill="#139ADD" transform="translate(5,133)"/>
<path d="M0 0 C1.32 0.33 2.64 0.66 4 1 C4 1.66 4 2.32 4 3 C5.65 2.67 7.3 2.34 9 2 C9 2.66 9 3.32 9 4 C6.36 4.66 3.72 5.32 1 6 C0.67 5.34 0.34 4.68 0 4 C-0.66 3.67 -1.32 3.34 -2 3 C-1.34 2.01 -0.68 1.02 0 0 Z " fill="#D4AAB2" transform="translate(129,118)"/>
<path d="M0 0 C0.66 0.33 1.32 0.66 2 1 C2 3.97 2 6.94 2 10 C0.68 9.01 -0.64 8.02 -2 7 C-1.34 5.35 -0.68 3.7 0 2 C-0.66 1.67 -1.32 1.34 -2 1 C-1.34 0.67 -0.68 0.34 0 0 Z " fill="#F0D5CA" transform="translate(62,111)"/>
<path d="M0 0 C0.99 0 1.98 0 3 0 C1.87548273 2.9719385 0.77706209 5.33440687 -1 8 C-1.66 8 -2.32 8 -3 8 C-2.45276317 4.62537285 -1.9451 2.91765 0 0 Z " fill="#1399DD" transform="translate(171,64)"/>
<path d="M0 0 C2.125 0.375 2.125 0.375 4 1 C3.43628586 4.26954202 2.50037734 5.82575883 0 8 C-0.66 6.02 -1.32 4.04 -2 2 C-1.34 1.34 -0.68 0.68 0 0 Z " fill="#E9E3C4" transform="translate(112,5)"/>
<path d="M0 0 C0.66 0 1.32 0 2 0 C2 0.66 2 1.32 2 2 C1.34 2 0.68 2 0 2 C-1.07525194 4.65228812 -2.09456151 7.28368454 -3 10 C-3.99 10 -4.98 10 -6 10 C-4.63312778 6.01328937 -2.84804907 3.11505367 0 0 Z " fill="#393618" transform="translate(68,159)"/>
<path d="M0 0 C0.66 0 1.32 0 2 0 C1.25 4.75 1.25 4.75 -1 7 C-4.625 7.125 -4.625 7.125 -8 7 C-8 6.67 -8 6.34 -8 6 C-6.02 6 -4.04 6 -2 6 C-1.855625 5.195625 -1.71125 4.39125 -1.5625 3.5625 C-1 1 -1 1 0 0 Z " fill="#3C352A" transform="translate(105,120)"/>
<path d="M0 0 C1.32 0 2.64 0 4 0 C3.49396008 2.16874252 3.00016187 3.99967627 2 6 C1.01 6 0.02 6 -1 6 C-0.67 4.02 -0.34 2.04 0 0 Z " fill="#3F1D20" transform="translate(56,115)"/>
<path d="M0 0 C0.33 0.99 0.66 1.98 1 3 C-0.670625 3.2165625 -0.670625 3.2165625 -2.375 3.4375 C-5.82142047 3.78372035 -5.82142047 3.78372035 -8 5 C-7.625 3.0625 -7.625 3.0625 -7 1 C-4.53721199 -0.231394 -2.7204945 -0.07159196 0 0 Z " fill="#1E1510" transform="translate(114,97)"/>
<path d="M0 0 C0.33 0 0.66 0 1 0 C1.125 2.875 1.125 2.875 1 6 C0.34 6.66 -0.32 7.32 -1 8 C-1.99 9.485 -1.99 9.485 -3 11 C-3 10.34 -3 9.68 -3 9 C-3.99 8.67 -4.98 8.34 -6 8 C-5.01 7.34 -4.02 6.68 -3 6 C-1.93753473 4.03247172 -0.92862192 2.03412421 0 0 Z " fill="#E2C3BE" transform="translate(104,40)"/>
<path d="M0 0 C0.99 0.33 1.98 0.66 3 1 C2.04454634 2.46022163 1.08553322 3.91811468 0.125 5.375 C-0.40867187 6.18710938 -0.94234375 6.99921875 -1.4921875 7.8359375 C-3 10 -3 10 -5 12 C-4.42365861 7.24518354 -2.44931479 4.02951788 0 0 Z " fill="#33A0C4" transform="translate(77,0)"/>
<path d="M0 0 C0.66 0 1.32 0 2 0 C1.875 1.75 1.875 1.75 1 4 C-2.0625 6.25 -2.0625 6.25 -5 8 C-5.66 7.67 -6.32 7.34 -7 7 C-5.6875 5 -5.6875 5 -4 3 C-3.01 3 -2.02 3 -1 3 C-0.67 2.01 -0.34 1.02 0 0 Z " fill="#DEDABF" transform="translate(28,76)"/>
<path d="M0 0 C3.33537489 1.11179163 4.63707344 2.47411298 7 5 C6.67 5.99 6.34 6.98 6 8 C5.34 7.67 4.68 7.34 4 7 C4 6.34 4 5.68 4 5 C2.68 4.34 1.36 3.68 0 3 C0 2.01 0 1.02 0 0 Z " fill="#110E09" transform="translate(75,163)"/>
<path d="M0 0 C0.99 0.33 1.98 0.66 3 1 C2 4 2 4 -0.375 5.25 C-3 6 -3 6 -6 5 C-1.60546875 0.99609375 -1.60546875 0.99609375 0 0 Z " fill="#071B25" transform="translate(31,66)"/>
<path d="M0 0 C0.99 0.99 1.98 1.98 3 3 C2.34 4.65 1.68 6.3 1 8 C0.34 7.01 -0.32 6.02 -1 5 C-1.66 4.67 -2.32 4.34 -3 4 C-2.01 2.68 -1.02 1.36 0 0 Z " fill="#101C1F" transform="translate(165,141)"/>
<path d="M0 0 C-0.33 0.99 -0.66 1.98 -1 3 C-2.65 3 -4.3 3 -6 3 C-6 2.01 -6 1.02 -6 0 C-3.50907189 -1.24546405 -2.58919267 -0.7767578 0 0 Z " fill="#C9CAC9" transform="translate(74,100)"/>
<path d="M0 0 C0.99 0.33 1.98 0.66 3 1 C3 1.66 3 2.32 3 3 C3.66 3.33 4.32 3.66 5 4 C5 4.99 5 5.98 5 7 C4.34 7 3.68 7 3 7 C2.67 6.34 2.34 5.68 2 5 C1.34 5.66 0.68 6.32 0 7 C-1.33332095 4.3333581 -0.67102033 2.83319697 0 0 Z " fill="#F6F1CB" transform="translate(123,97)"/>
<path d="M0 0 C0.66 0 1.32 0 2 0 C2 2.31 2 4.62 2 7 C1.01 7.33 0.02 7.66 -1 8 C-1.125 2.25 -1.125 2.25 0 0 Z " fill="#EDE6C0" transform="translate(87,8)"/>
<path d="M0 0 C1.98 0 3.96 0 6 0 C5.34 1.32 4.68 2.64 4 4 C2.68 3.67 1.36 3.34 0 3 C0 2.01 0 1.02 0 0 Z " fill="#9E1018" transform="translate(92,164)"/>
<path d="M0 0 C2.475 0.99 2.475 0.99 5 2 C5 2.66 5 3.32 5 4 C3.02 4.66 1.04 5.32 -1 6 C-0.67 4.02 -0.34 2.04 0 0 Z " fill="#231D15" transform="translate(116,98)"/>
<path d="M0 0 C7.75 -0.125 7.75 -0.125 10 1 C10 1.66 10 2.32 10 3 C3.375 2.25 3.375 2.25 0 0 Z " fill="#29271C" transform="translate(128,57)"/>
<path d="M0 0 C0 0.66 0 1.32 0 2 C-3.63 1.67 -7.26 1.34 -11 1 C-6.46780033 -1.26609984 -4.82227075 -0.92735976 0 0 Z " fill="#102530" transform="translate(65,53)"/>
<path d="M0 0 C0.33 0.99 0.66 1.98 1 3 C2.65 3 4.3 3 6 3 C6 3.66 6 4.32 6 5 C4.68 5 3.36 5 2 5 C1.67 6.32 1.34 7.64 1 9 C0.67 6.03 0.34 3.06 0 0 Z " fill="#CAB4A7" transform="translate(72,45)"/>
<path d="M0 0 C0.33 0.99 0.66 1.98 1 3 C1.66 3 2.32 3 3 3 C3 3.66 3 4.32 3 5 C3.99 5.33 4.98 5.66 6 6 C3.69 6 1.38 6 -1 6 C-0.67 4.02 -0.34 2.04 0 0 Z " fill="#403B1D" transform="translate(156,160)"/>
<path d="M0 0 C1.65 0.99 3.3 1.98 5 3 C4.67 4.32 4.34 5.64 4 7 C4 6.34 4 5.68 4 5 C2.35 4.67 0.7 4.34 -1 4 C-0.67 2.68 -0.34 1.36 0 0 Z " fill="#1B1E1F" transform="translate(100,163)"/>
<path d="M0 0 C0.99 0.33 1.98 0.66 3 1 C3 1.66 3 2.32 3 3 C3.99 3.33 4.98 3.66 6 4 C5 5 5 5 2.4375 5.0625 C1.2309375 5.0315625 1.2309375 5.0315625 0 5 C0 3.35 0 1.7 0 0 Z " fill="#383411" transform="translate(24,161)"/>
<path d="M0 0 C-2.55068845 2.35448165 -3.71017358 2.98327924 -7.25 3.1875 C-8.1575 3.125625 -9.065 3.06375 -10 3 C-4.37755102 -1.45918367 -4.37755102 -1.45918367 0 0 Z " fill="#FAF5E8" transform="translate(107,120)"/>
<path d="M0 0 C1.98 0.66 3.96 1.32 6 2 C6 2.66 6 3.32 6 4 C3.36 3.67 0.72 3.34 -2 3 C-1.34 2.01 -0.68 1.02 0 0 Z " fill="#EEE3CC" transform="translate(120,112)"/>
<path d="M0 0 C0.99 0 1.98 0 3 0 C3.33 2.64 3.66 5.28 4 8 C3.34 6.68 2.68 5.36 2 4 C1.01 4 0.02 4 -1 4 C-0.67 2.68 -0.34 1.36 0 0 Z " fill="#0C0502" transform="translate(137,85)"/>
<path d="M0 0 C3 3.625 3 3.625 3 7 C2.34 7 1.68 7 1 7 C0.34 6.34 -0.32 5.68 -1 5 C-1.66 4.67 -2.32 4.34 -3 4 C-2.67 3.34 -2.34 2.68 -2 2 C-1.34 2.33 -0.68 2.66 0 3 C0 2.01 0 1.02 0 0 Z " fill="#16292B" transform="translate(169,84)"/>
<path d="M0 0 C-1.24976756 3.65316671 -1.67098753 4.78065836 -5 7 C-5 4 -5 4 -4 1 C-2 0 -2 0 0 0 Z " fill="#120D09" transform="translate(58,70)"/>
<path d="M0 0 C0.99 0.33 1.98 0.66 3 1 C3 3.31 3 5.62 3 8 C2.01 7.67 1.02 7.34 0 7 C0 4.69 0 2.38 0 0 Z " fill="#EDF2D7" transform="translate(120,53)"/>
<path d="M0 0 C2.31 0 4.62 0 7 0 C7 0.66 7 1.32 7 2 C4.69 2.33 2.38 2.66 0 3 C0 2.01 0 1.02 0 0 Z " fill="#191A19" transform="translate(54,54)"/>
<path d="M0 0 C0.99 0.33 1.98 0.66 3 1 C3 1.99 3 2.98 3 4 C1.02 4 -0.96 4 -3 4 C-2.01 2.68 -1.02 1.36 0 0 Z " fill="#1D89B7" transform="translate(163,176)"/>
<path d="M0 0 C0.99 0 1.98 0 3 0 C3.33 0.99 3.66 1.98 4 3 C3.01 3.99 2.02 4.98 1 6 C0.34 4.35 -0.32 2.7 -1 1 C-0.67 0.67 -0.34 0.34 0 0 Z " fill="#091C25" transform="translate(22,170)"/>
<path d="M0 0 C2.64 0.33 5.28 0.66 8 1 C7.67 1.66 7.34 2.32 7 3 C5.02 3 3.04 3 1 3 C0.67 2.01 0.34 1.02 0 0 Z " fill="#D8DCD8" transform="translate(75,160)"/>
<path d="M0 0 C0.99 0.33 1.98 0.66 3 1 C3 1.66 3 2.32 3 3 C0.35261084 4.4606285 -0.89448334 5 -4 5 C-3 2 -3 2 0 0 Z " fill="#39371B" transform="translate(161,150)"/>
<path d="M0 0 C2.52259061 1.97420135 2.9929808 2.96745642 3.6875 6.1875 C3.790625 7.115625 3.89375 8.04375 4 9 C0 4.5 0 4.5 0 0 Z " fill="#031C28" transform="translate(12,134)"/>
<path d="M0 0 C2.44839588 3.67259383 4 6.54648201 4 11 C3.34 11 2.68 11 2 11 C0.80712589 7.12315913 0 4.08378077 0 0 Z " fill="#353322" transform="translate(14,130)"/>
<path d="M0 0 C1.125 1.75 1.125 1.75 2 4 C1.125 6.25 1.125 6.25 0 8 C-0.66 8 -1.32 8 -2 8 C-2.33 7.01 -2.66 6.02 -3 5 C-1.5625 2.3125 -1.5625 2.3125 0 0 Z " fill="#E0C2BB" transform="translate(147,119)"/>
<path d="M0 0 C0.66 0.66 1.32 1.32 2 2 C1.01 3.485 1.01 3.485 0 5 C0 4.34 0 3.68 0 3 C-1.98 3 -3.96 3 -6 3 C-5.67 2.34 -5.34 1.68 -5 1 C-2.5625 0.25 -2.5625 0.25 0 0 Z " fill="#0B0B0D" transform="translate(74,103)"/>
<path d="M0 0 C3.875 1.75 3.875 1.75 5 4 C2.69 4 0.38 4 -2 4 C-1.34 2.68 -0.68 1.36 0 0 Z " fill="#EDE9CF" transform="translate(125,76)"/>
<path d="M0 0 C1.65 0.99 3.3 1.98 5 3 C4.67 3.66 4.34 4.32 4 5 C2.35 4.67 0.7 4.34 -1 4 C-0.67 2.68 -0.34 1.36 0 0 Z " fill="#DEDDBE" transform="translate(121,72)"/>
<path d="M0 0 C0.99 0.33 1.98 0.66 3 1 C2.67 2.65 2.34 4.3 2 6 C-0.475 5.01 -0.475 5.01 -3 4 C-2.01 2.68 -1.02 1.36 0 0 Z " fill="#353224" transform="translate(122,67)"/>
<path d="M0 0 C2.4375 0.8125 2.4375 0.8125 5 2 C5.33 2.99 5.66 3.98 6 5 C4.35 5 2.7 5 1 5 C0.67 3.35 0.34 1.7 0 0 Z " fill="#F5F0D2" transform="translate(129,66)"/>
<path d="M0 0 C1.65 0 3.3 0 5 0 C5.33 1.32 5.66 2.64 6 4 C4.02 3.34 2.04 2.68 0 2 C0 1.34 0 0.68 0 0 Z " fill="#228EB3" transform="translate(146,59)"/>
<path d="M0 0 C0.33 1.32 0.66 2.64 1 4 C1.66 4 2.32 4 3 4 C2.67 4.99 2.34 5.98 2 7 C2 6.34 2 5.68 2 5 C0.35 5.33 -1.3 5.66 -3 6 C-1.125 1.125 -1.125 1.125 0 0 Z " fill="#CABAB2" transform="translate(105,6)"/>
<path d="M0 0 C1.65 0 3.3 0 5 0 C3.02 2.31 1.04 4.62 -1 7 C-1 4.37886292 -0.68707555 2.49064888 0 0 Z " fill="#2CA5D6" transform="translate(100,0)"/>
</svg>
